<?xml version="1.0" encoding="UTF-8"?><svg id="a" xmlns="http://www.w3.org/2000/svg" viewBox="0 0 975 829"><defs><style>.b{fill:#b8b4b8;}.c{fill:#aa9e9b;}.d{fill:#bcb8bc;}.e{fill:#bdbcc0;}.f{fill:#d6cac7;}.g{fill:#3ebfcd;}.h{fill:#42afc1;}.i{fill:#628aa4;}.j{fill:#5b93ab;}.k{fill:#6388a2;}.l{fill:#5996ad;}.m{fill:#44aec0;}.n{fill:#766560;}.o{fill:#776660;}.p{fill:#776661;}.q{fill:#4ea3b7;}.r{fill:#509fb4;}</style></defs><path class="n" d="M341.32,309.81c-2.51-.17-5.02-.4-7.54-.48-2.5-.08-5.07,.35-7.48-.1-3.87-.73-7.71-.2-11.55-.4-2.35-.12-4.65-.7-7.04-.54-2.41,.15-4.89,.37-7.23-.04-4.11-.72-8.24,.04-12.29-.49-5.27-.68-10.57,.08-15.78-.55-4.13-.49-8.24,.09-12.29-.46-4.44-.6-8.91,.06-13.28-.54-3.88-.54-7.71-.18-11.55-.38-2.35-.13-4.65-.69-7.04-.54-2.41,.15-4.89,.37-7.23-.04-4.19-.74-8.37-.2-12.55-.43-.63-.03-1.19,0-1.84-.4-.75-.45-1.84,.11-2.17,.84-.49,1.08-1.41,1.51-2.27,1.99-1.95,1.09-3.92,2.21-6,2.99-5.15,1.94-9.83,4.82-14.81,7.07-11.46,5.18-22.47,11.28-33.84,16.62-12.15,5.71-24.03,11.95-36.08,17.86-3.11,1.53-6.23,3.06-9.35,4.58-.34,.17-.71,.33-1.08,.39-.17,.03-.42-.15-.56-.31-.07-.08-.04-.35,.04-.46,.63-.83,1.24-1.68,1.94-2.44,2.33-2.54,4.67-5.08,7.07-7.56,2.43-2.51,4.83-5.08,7.44-7.39,2.8-2.48,5.55-5.03,8.42-7.42,2.46-2.05,4.86-4.2,7.5-6.01,3.31-2.28,6.27-5.06,9.87-6.92,3.35-3.18,7.57-5.1,11.32-7.7,2.73-1.89,5.72-3.46,8.58-5.18,1.58-.95,3.31-1.67,4.93-2.57,.63-.35,1.16-.89,1.73-1.34-.74-.21-1.51-.67-2.23-.6-3.05,.29-6.01-.68-9.04-.58-1.26,.04-2.52-.31-3.79-.46-1.27-.16-2.62,.38-3.8-.49-.11-.08-.33-.03-.49,0-2.71,.34-5.33-.62-8.04-.55-1.08,.03-2.13-.58-3.29-.48-1.11,.09-2.27,.23-3.29-.47-.06-.04-.16,0-.25,0-2.68-.17-5.36-.31-8.04-.51-1.11-.08-2.12-.63-3.3-.53-1.09,.1-2.29,.34-3.29-.46-.05-.04-.16,0-.25,0-2.43-.17-4.86-.3-7.29-.51-1.02-.09-2.03-.35-3.04-.48-.94-.12-1.97,.3-2.8-.5-.09-.08-.32,0-.49-.01-2.1-.16-4.24-.13-6.27-.57-1.28-.27-2.62-.12-3.78-.51-1.21-.4-2.48-.09-3.54-.5-1.13-.44-2.29-.13-3.3-.48-1.12-.39-2.2-.36-3.31-.46-.77-.07-1.53-.32-2.29-.48-.85-.17-1.69-.35-2.54-.5-.77-.14-1.51,.02-2.35-.38-1.01-.49-2.32-.31-3.5-.5-1.16-.2-2.31-.69-3.52-.62-1.13,.07-2.11-.87-3.29-.5-.9-1.03-2.43,.03-3.33-1-2.98,.09-5.68-1.31-8.62-1.59-1.41-.13-2.98-.49-4.26-1.1-.96-.46-1.88,0-2.79-.54-.75-.44-1.73-.62-2.66-.83-2.18-.49-4.31-1.23-6.43-1.96-1.75-.6-3.44-1.36-5.18-1.97-1.73-.62-9.26-4.1-10.4-5.04-1.7-1.4-3.14-3.1-4.2-5-.82-1.46-1.57-2.98-2.16-4.6-.51-1.43-.59-2.86-.27-4.05,.33-1.2,.54-2.53,1.28-3.72,.59-.95,1.33-1.77,1.88-2.71,.55-.94,1.38-1.42,2.09-2.11,2.89-2.8,6.45-4.5,9.96-6.19,2.4-1.15,4.96-2.09,7.65-2.66,1.95-.41,3.94-.94,5.81-1.62,1.06-.38,2.13-.17,3.21-.69,1.3-.62,2.98-.41,4.49-.62,.61-.08,1.19-.35,1.8-.48,.61-.13,1.2,0,1.86-.35,1.02-.53,2.4,.15,3.47-.66,2.58,.06,5.06-.7,7.56-1.11,2.21-.36,4.53-.47,6.64-1.39,1.49,.36,2.83-.51,4.29-.53,.85,0,1.69-.32,2.54-.47,.85-.15,1.67,.07,2.59-.41,.89-.46,2.14-.16,3.27-.52,1.42-.46,3.05-.22,4.51-.61,2.6-.69,5.36-.45,7.88-1.46,1.65,.36,3.17-.49,4.79-.53,.85-.02,1.69-.34,2.54-.46,.86-.13,1.68-.1,2.57-.42,1.15-.41,2.49-.17,3.78-.52,1.68-.46,3.5-.46,5.27-.55,1.05-.05,1.93-.72,3.05-.56,1.01,.14,2.11,.25,3.04-.46,.05-.04,.16,0,.25,0,2.6-.17,5.19-.3,7.79-.51,1.02-.08,2.02-.39,3.04-.47,1.08-.08,2.27,.27,3.22-.08,1.61-.6,3.21-.29,4.81-.45,1.02-.1,2.04-.29,3.03-.52,.16-.04,.35-.55,.29-.79-.08-.36-.35-.69-.56-1.01-1.6-2.48-3.1-5.03-4.39-7.68-1.11-2.28-2.14-4.62-2.99-7-.85-2.4-1.9-4.79-2.41-7.23-.67-3.22-1.76-6.34-2.21-9.62-.2-1.43-.66-2.91-.85-4.35-.19-1.5-.89-2.96-.57-4.53-1.06-1.64-.32-3.57-.89-5.37-.53-1.66-.11-3.63-.11-5.46s-.11-3.84,.03-5.74c.14-1.83,.25-3.72,.67-5.47,.39-1.64,.26-3.46,1.3-4.94,.11-3.3,2.4-5.86,3.03-8.99,1.67-1.81,2.27-4.26,3.71-6.21,2.69-3.66,5.35-7.4,8.87-10.29,3.47-2.84,7.01-5.58,10.98-7.8,2.37-1.32,4.78-2.6,7.18-3.82,2.72-1.39,5.78-2.11,8.51-3.58,2.47-.04,4.61-1.66,7.12-1.5,1.19-1.02,2.74-.35,4.13-.89,1.3-.51,2.96-.11,4.45-.11s3.05-.25,4.49,.05c3.06,.64,6.19,.88,9.23,1.79,1.92,.57,3.84,1.24,5.81,1.7,1.94,.46,3.71,1.5,5.67,1.98,.65,.16,1.22,.67,1.84,.97,3.47,1.67,7.01,3.21,10.4,5.04,3.07,1.66,6.11,3.4,9.11,5.2,3.35,2.01,6.65,4.08,9.88,6.27,2.23,1.51,4.36,3.15,6.54,4.74,6.79,4.96,12.54,11.05,18.46,16.96,.41,.41,.79,.86,1.25,1.22,.4,.32,1.17-.06,1.28-.55,.3-1.45,.53-2.91,.95-4.35,.41-1.41,.84-2.92,.94-4.33,.2-2.8,1.41-5.33,1.68-8.11,.2-2.05,1.05-4.04,1.62-6.05,.59-2.08,1.34-4.14,1.75-6.26,.24-1.25,.75-2.37,1.08-3.57,.84-3.05,1.84-6.05,2.91-9.03,.73-2.02,1.4-4.1,2.15-6.11,.73-1.93,1.53-3.88,2.26-5.8,1.29-3.39,2.75-6.7,4.19-10.01,1.53-3.53,3.19-7.02,4.99-10.42,1.6-3.02,3.58-5.84,5.2-8.84,2.16-4,4.76-7.71,7.28-11.47,1.24-1.85,2.71-3.55,4.05-5.32,1.46-1.93,3.06-3.75,4.66-5.53,2.18-2.43,4.3-5.01,7.14-6.79,.34-.21,.6-.57,.89-.87,2.96-3.1,6.46-5.55,9.98-7.9,4.31-2.88,8.79-5.52,13.55-7.68,4-1.82,8.07-3.46,12.22-4.87,2.05-.7,4.11-1.4,6.19-1.92,2.04-.51,4.08-1.18,6.11-1.48,2.36-.34,4.63-1.24,7.07-1.14,.84,.04,1.69-.31,2.54-.47,.77-.14,1.68,.36,2.3-.5,.03-.04,.16-.02,.24,0,2.06,.37,4.03-.38,6.03-.58,2.28-.22,4.64-.05,6.84-.92,.07-.03,.17,0,.25,0,2.35-.17,4.69-.48,7.04-.44,1.33,.02,2.49-.62,3.79-.57,1.33,.05,2.78,.34,3.97-.07,1.47-.51,2.9-.48,4.32-.37,1.91,.15,3.67-.64,5.54-.56,1.91,.08,3.9,.34,5.73-.05,3.69-.78,7.39-.09,11.05-.46,9.17-.9,18.35-.33,27.53-.45,2.59-.03,5.19,.37,7.79,.45,2.66,.08,5.39-.34,7.98,.11,3.04,.54,6.09-.03,9.04,.49,2.37,.41,4.75,.06,7.04,.5,2.04,.39,4.08,.1,6.04,.5,1.87,.37,3.75,.13,5.54,.5,1.7,.35,3.37,.32,5.05,.46,.93,.08,1.8,.5,2.79,.5,.93,0,1.85-.23,2.85,.36,.74,.44,2.03-.15,2.92,.16,1.19,.4,2.44,.16,3.54,.51,1.2,.39,2.4,.22,3.56,.47,2.18,.46,4.37,.8,6.59,.96,1.19,1.04,2.76,.23,4.13,.92,1.14,.57,2.72,.21,3.98,.63,1.8,.6,3.67,.76,5.5,1.18,1.83,.42,3.69,.81,5.45,1.35,3.16,.97,6.37,1.85,9.47,3.05,2.8,1.08,5.5,2.4,8.31,3.48,2.43,.94,4.67,2.44,6.9,3.83,3.12,1.95,6.16,4.03,9.24,6.05,.85,.56,1.75,1.07,2.53,1.71,1.5,1.25,2.95,2.57,4.4,3.88,1.94,1.76,3.94,3.46,5.78,5.32,2.2,2.21,4.36,4.47,6.36,6.86,4.08,4.87,7.84,9.98,11.3,15.31,1.98,3.06,3.71,6.28,5.5,9.46,2.27,4.05,4.67,8.05,6.63,12.25,1.1,2.37,2.33,4.7,3.24,7.15,.92,2.45,1.94,4.88,2.95,7.27,1.84,4.33,3.4,8.76,5.04,13.16,1.08,2.9,1.88,5.88,2.87,8.81,.84,2.49,1.71,5,2.32,7.51,.87,3.56,2.11,7.02,2.67,10.66,.17,1.14,.64,2.23,.97,3.34,.13,.42-.34,1.14,.39,1.21,.36,.03,.81-.44,1.16-.76,2.36-2.17,4.64-4.42,7.06-6.51,2.45-2.12,4.93-4.21,7.38-6.34,2.45-2.13,5.15-3.97,7.8-5.86,2.56-1.82,5.14-3.63,7.8-5.29,2.63-1.64,5.35-3.14,8.08-4.6,3.4-1.82,6.8-3.67,10.3-5.28,3.98-1.84,7.88-3.94,12.12-5.1,2.48-.68,4.93-1.59,7.55-1.69,1.64-1.09,3.57-.29,5.37-.88,1.65-.55,3.63-.07,5.46-.13,1.23-.04,2.37,.24,3.55,.5,1.08,.24,2.3-.38,3.29,.52,2.76-.2,5.22,1.12,7.87,1.53,1.14,.17,2.27,.54,3.33,.99,2.84,1.2,5.72,2.33,8.43,3.78,4.35,2.32,8.52,4.92,12.51,7.86,4,2.95,7.48,6.39,10.8,10,2.54,2.77,4.61,5.96,6.45,9.29,1.77,3.19,3.22,6.49,4.37,9.94,.39,1.17,.75,2.36,1.06,3.56,.31,1.21,.63,2.42,.84,3.66,.44,2.52,.72,5.05,1.07,7.57,.27,1.95,.3,3.87,.37,5.81,.06,1.91,0,3.83,.02,5.75,.01,1.21-.72,2.27-.54,3.55,.15,1.09,.24,2.27-.46,3.29,.28,2.53-.76,4.87-1.09,7.32-.25,1.88-.84,3.78-1.42,5.63-.78,2.5-1.66,4.98-2.49,7.46-.37,1.1-.67,2.22-1.09,3.3-.4,1-1.06,1.91-1.37,2.93-.8,2.61-2.18,4.93-3.37,7.35-.46,.94-.19,1.31,.77,1.41,1.19,.12,2.36,.35,3.54,.48,1.19,.13,2.45-.3,3.55,.5,.11,.08,.33,0,.49,.01,2.51,.16,5.03,.3,7.54,.51,1.02,.08,1.94,.65,3.05,.52,1.02-.12,2.03,.18,3.05,.39,2.04,.42,4.18,.38,6.27,.59,1.02,.1,2.03,.31,3.04,.49,.93,.17,2-.46,2.8,.48,.07,.08,.32,0,.49,.01,2.1,.16,4.22,.18,6.28,.54,2.77,.48,5.58,.55,8.32,1.05,1.19,.22,2.37,.31,3.55,.44,1.1,.12,2.23,.31,3.28,.55,2.61,.61,5.32,.57,7.91,1.37,1.43,.44,3.08,.17,4.51,.6,2.19,.66,4.46,.8,6.67,1.32,2.04,.48,4.2,.8,6.29,1.21,2.51,.49,5.05,.94,7.5,1.75,1.47,.49,3.01,.79,4.52,1.16,2.04,.51,4.16,.81,6.1,1.58,1.24,.49,2.58,.51,3.78,1.14,1.08,.56,2.35,.77,3.45,1.31,3.25,1.6,6.72,2.76,9.74,4.87,1.72,1.2,3.45,2.34,4.87,3.92,1.15,1.27,2.7,4.54,2.93,6.29,.11,.85,.55,1.73,.45,2.54-.34,2.62-1.84,6.7-4.09,8.81-2.12,1.98-4.19,3.9-6.91,5.08-1.41,.61-2.53,1.7-4.17,2.03-1.46,.3-2.75,1.37-4.2,1.89-1.45,.52-2.92,1.09-4.39,1.44-1.3,.3-2.53,.78-3.82,1.07-1.21,.28-2.45,.82-3.6,.89-2.8,.19-5.34,1.37-8.09,1.73-1.79,.23-3.67,.52-5.43,1.3-.87,.39-2,.2-3.02,.55-1.03,.36-2.18,.38-3.28,.54s-2.25,.17-3.28,.53c-2.32,.83-4.81,.64-7.15,1.41-1.42,.46-3.01,.36-4.52,.56-.85,.11-1.69,.36-2.54,.48-.78,.1-1.53,.17-2.32,.42-1.17,.37-2.49,.17-3.78,.52-1.69,.46-3.51,.38-5.27,.58-.94,.11-1.86,.33-2.79,.49-.85,.15-1.84-.4-2.55,.5-.03,.04-.16,.02-.24,0-2.06-.37-4,.59-6.04,.54-1.18-.03-2.36,.31-3.54,.46-1.1,.14-2.3-.37-3.3,.49-.1,.08-.32,0-.49,.01-2.6,.16-5.19,.3-7.79,.51-1.02,.08-2.02,.39-3.04,.47-1.08,.08-2.29-.29-3.22,.09-1.46,.59-2.89,.29-4.32,.44-1.18,.13-2.36,.39-3.54,.47-1.16,.08-2.44-.28-3.47,.09-1.62,.57-3.21,.29-4.81,.44-1.02,.1-2.02,.39-3.04,.47-1.08,.08-2.28-.28-3.22,.09-1.54,.61-3.05,.28-4.57,.44-1.1,.12-2.19,.39-3.29,.47-1.08,.08-2.29-.29-3.22,.09-1.46,.59-2.89,.29-4.32,.44-1.27,.13-2.52,.39-3.79,.47-1.24,.08-2.6-.29-3.72,.09-1.71,.59-3.38,.28-5.06,.44-1.19,.11-2.36,.39-3.54,.47-1.16,.08-2.45-.3-3.47,.09-1.54,.59-3.08,.14-4.56,.46-3.25,.69-6.57,.1-9.78,.58-2.04,.31-4.09,.02-6.04,.44-3.18,.69-6.37,.28-9.55,.46-.94,.05-1.86,.35-2.79,.47-.96,.13-1.93,.18-2.89,.28-.06,0-.17,.17-.17,.16-1.46-1.24-2.87,.18-4.32,.09-1.58-.09-3.18,.12-4.74-.05-2.15-.24-4.17,.61-6.29,.55-2.16-.07-4.33-.09-6.49,.02-1.09,.06-2.14,.51-3.29,.51-1.1,0-2.31-.52-3.33,.36-.67-.59-1.53-.57-2.25-.38-3.41,.91-6.91,0-10.28,.54-4.36,.7-8.74-.06-13.03,.52-3.29,.44-6.6-.07-9.78,.49-3.87,.68-7.72,.04-11.55,.44-7.92,.83-15.86,.32-23.78,.47-4.65,1.03-9.39,0-14.02,.58-3.88,.49-7.72,.29-11.58,.42-6,.24-12-.16-18.02,.39-5.61,.52-11.3,.11-16.96,.11s-11.15-.07-16.72,.02c-5.59,.08-11.19-.41-16.77,.45-1.3,.2-2.66,.03-3.99,.03-.76,.16-1.75,.69-2.22,.4-.81-.52-1.57-.41-2.34-.37-2.09,.09-4.17,.41-6.25,.45-3.56,.08-7.12,.02-10.68,.02h-48.97c-2.58,0-5.15,.05-7.73-.01-2.59-.06-5.18,.19-7.79-.42-1.58-.37-3.31-.07-4.97-.07-3.66,0-7.32,.06-10.98-.02-3.59-.08-7.22,.43-10.78-.48-6.99,0-13.98,.06-20.97-.02-6.92-.08-13.84,.12-20.77-.39-6.12-.45-12.31-.09-18.46-.09ZM146.92,181.18c0,1.58-.06,3.17,.02,4.74,.08,1.52,.29,3.03,.49,4.54,.09,.69,.34,1.36,.48,2.04,.14,.69-.33,1.51,.45,2.06,.21,2.03,1.14,3.89,1.52,5.86,.83,4.28,2.37,8.35,3.61,12.51,.47,1.59,1.45,3.31,2.72,4.29,1.4,1.08,2.86,2.19,4.41,3.12,1.28,.77,2.42,1.77,3.72,2.49,1.34,.75,2.76,1.4,4.21,1.88,1.55,.51,3.18,1.07,4.77,1.08,2.76,.02,5.51,.27,8.31-.34,2.25-.49,4.67-.06,7.03-.54,1.96-.4,4-.08,6.05-.45,2.61-.47,5.34-.04,8.03-.55,2.29-.43,4.66-.05,7.04-.45,2.94-.5,6-.04,9.03-.54,2.8-.46,5.67,.02,8.54-.47,3.03-.52,6.17,.03,9.28-.52,2.87-.5,5.83,.06,8.79-.49,2.94-.55,6,.07,9.04-.5,2.77-.52,5.68,.11,8.53-.52,1.67-.36,3.49,0,5.23-.08,1.77-.08,3.52-.35,5.29-.46,.6-.04,.84-.13,.87-.82,.12-3.68-.02-7.34,.38-11.04,.63-5.8-.28-11.67,.52-17.53,.42-3.02,.17-6.16,.03-9.23-.06-1.37-.46-2.8-1.01-4.06-.43-.99-1.29-1.83-2.05-2.65-1.72-1.86-3.45-3.73-5.17-5.57-3.31-3.55-6.98-6.77-10.51-10.12-.17-.17-.36-.32-.56-.46-1.67-1.2-3.35-2.38-5-3.61-2.46-1.83-4.97-3.58-7.61-5.13-2.69-1.58-5.28-3.32-7.96-4.92-2.39-1.42-4.63-3.03-7.35-3.98-4.49-1.58-8.67-3.95-13.16-5.62-2.33-.87-4.77-1.3-7.07-2.23-1.49,.38-2.82-.66-4.29-.51-1.46,.16-2.88-.11-4.29-.48-.98-.26-1.86,.41-2.79,.47-1.77,.1-3.54-.02-5.3,.49-1.79,.52-3.64,.8-5.43,1.38-3.45,1.13-6.75,2.6-10.02,4.15-5.05,2.39-9.73,5.4-13.99,8.98-1.92,1.61-3.68,3.46-5.23,5.52-1.25,1.65-2.58,3.24-3.58,5.04-.98,1.74-2.01,3.44-2.79,5.34-1.89,4.65-3.07,9.39-3.24,14.39-.04,1.16,0,2.33,0,3.5Zm518.73,25.37c0,4-.01,7.99,0,11.99,0,1.63,.19,1.75,1.86,1.83,3.01,.16,6.03-.3,9.05,.42,1.66,.39,3.48,0,5.23,.09,1.68,.08,3.36,.33,5.04,.48,2.34,.21,4.69-.28,7.06,.43,1.38,.41,2.99,.2,4.47,.04,1.58-.17,3,.51,4.54,.56,2.51,.08,5.01-.06,7.56,.36,3.03,.5,6.18,.05,9.28,.56,2.39,.39,4.84,.04,7.29,.45,2.78,.47,5.68,0,8.53,.55,2.05,.4,4.19-.2,6.3,.48,1.13,.37,2.48,0,3.72,.08,1.19,.08,2.36,.37,3.54,.47,2.42,.21,4.88-.33,7.31,.45,.72,.23,1.67-.36,2.52-.42,1.52-.1,3.02-.19,4.55-.43,2.2-.35,4.19-1.14,6.21-1.95,2.66-1.07,4.94-2.82,7.04-4.64,3.26-2.83,6.17-5.94,7.55-10.33,1.04-3.3,2.32-6.53,3.41-9.83,1.22-3.72,1.64-7.6,2.88-11.29-.36-1.41,.57-2.67,.5-4.04-.07-1.38,.43-2.74,.42-4.04-.04-4.26,.53-8.53-.38-12.79-.49-2.3-1.02-4.53-2.02-6.66-1.9-4.07-4.28-7.78-7.62-10.83-.68-.62-1.32-1.27-1.94-1.94-2.58-2.78-5.79-4.72-9.06-6.49-5.09-2.75-10.39-5.1-16.02-6.53-2.37-.6-4.76-1.27-7.27-1.2-.92,.03-1.96,.46-2.83-.4-.18-.18-.91-.1-1.11,.11-.44,.46-.92,.29-1.38,.32-1.85,.12-3.68-.04-5.56,.42-1.96,.48-3.93,.97-5.88,1.5-4.48,1.24-8.65,3.24-12.87,5.11-3.24,1.43-6.37,3.13-9.5,4.81-3.14,1.69-6.3,3.37-9.28,5.31-5.11,3.32-10.01,6.96-14.77,10.77-2.17,1.73-4.17,3.69-6.16,5.64-2.88,2.82-5.75,5.65-8.34,8.76-1.23,1.48-2.43,2.95-3.55,4.52-.9,1.25-1.34,2.5-1.29,3.98,.07,2.02-.33,4.08,.49,6.04-.07,3.61,.78,7.16,.53,10.78-.15,2.15-.03,4.33-.03,6.49Zm-92.81,49.79c2.78-.22,6.25,.45,9.64-.5,6.42-.24,12.86,.46,19.28-.46,3.06-.44,6.2,.36,9.3-.48,1.32-.35,2.82,0,4.23-.08,1.35-.08,2.69-.38,4.04-.46,1.94-.12,3.91,.23,5.79-.51,.32-.13,.66-.21,.99-.32-.31-.06-.61-.13-.92-.19-.93-.17-1.85-.4-2.79-.48-.99-.08-2,.03-3-.03-4.59-.24-9.17,.13-13.79-.38-5.79-.64-11.67,.1-17.52-.55-5.3-.58-10.66,.14-16.03-.47-5.79-.66-11.67,.15-17.52-.53-5.3-.61-10.69,.39-16.03-.52-2.02-.34-4.15-.06-6.23-.06s-4.17,.06-6.24-.02c-2.02-.08-4.02-.33-6.04-.47-.66-.05-1.63-.28-1.94,.05-.72,.77-1.12-.09-1.64-.09-4.01-.01-8.02,.03-12.04-.38-5.39-.56-10.83,.13-16.28-.48-5.63-.63-11.34,.11-17.03-.52-5.47-.61-11.02,.38-16.53-.52-2.03-.33-4.15-.05-6.24-.05s-4.01-.14-5.99,.04c-2.07,.19-4-.63-6.04-.56-2.49,.09-5,.07-7.49,0-2.52-.06-5.07,.36-7.54-.49-6.01-.18-12.02,.23-18.03-.43-5.14-.57-10.34,.27-15.53-.48-3.1-.45-6.32-.18-9.48-.05-3.12,.13-6.19-.56-9.28-.49-9.77,.22-19.5-.89-29.27-.54-.33,.01-.78,.14-.98-.02-1.11-.91-2.38-.36-3.56-.45-1.24-.1-2.5-.05-3.74,0-.18,0-.46,.37-.5,.6-.06,.36-.17,.81,.5,.88,1.1,.11,2.2,.5,3.29,.45,2.79-.13,5.49,.88,8.29,.54,.16-.02,.39-.07,.49,0,1.09,.85,2.37,.34,3.55,.49,1.18,.15,2.36,.4,3.54,.48,2.84,.21,5.69,.35,8.53,.51,.08,0,.19-.03,.25,0,1.01,.76,2.19,.55,3.29,.46,1.17-.09,2.19,.42,3.29,.51,1.77,.14,3.52,.02,5.3,.45,1.61,.38,3.34,.14,5.04,.5,1.79,.38,3.68,.05,5.54,.51,1.53,.38,3.17,.12,4.79,.47,1.86,.41,3.84,.1,5.78,.53,1.87,.41,3.83,.1,5.79,.46,2.44,.45,5.01,.07,7.53,.55,1.97,.37,4.01,.18,6.04,.45,3.22,.43,6.51,.06,9.78,.55,3.05,.45,6.17-.06,9.29,.46,3.36,.57,6.83-.07,10.28,.51,3.2,.54,6.5-.05,9.79,.49,3.36,.55,6.83-.02,10.28,.51,3.54,.54,7.16-.04,10.78,.49,4.04,.58,8.16,.02,12.28,.5,5.3,.61,10.67-.07,16.03,.49,4.69,.49,9.48,.1,14.23,.1s9.66,.09,14.49-.03c4.68-.12,9.35,.37,14.04-.4,2.59-.42,5.32-.08,7.98-.08s5.34-.15,7.99,.04c2.64,.19,5.16-.73,7.79-.56,1.82,.12,3.66,.02,6.14,.02Z"/><path class="g" d="M492.75,311.31c3.56,0,7.12,.06,10.68-.02,2.09-.05,4.17-.36,6.25-.45,.76-.03,1.52-.15,2.34,.37,.46,.3,1.46-.24,2.22-.4,.5,1.09,1.45,.47,2.14,.47,23.44,.04,46.88,.03,70.32,.03,5.16,0,10.31-.04,15.47,.01,3.02,.03,5.98-.74,9.03-.56,3.07,.19,6.15,.04,9.23,.04s6.16-.01,9.23,0c.98,0,2.05-.14,2.9,.22,1,.42,1.93,.18,2.88,.26,.99,.08,2.09-.25,2.97,.07,1.77,.64,3.54,.31,5.3,.46,1.18,.1,2.36,.33,3.54,.49,1.1,.15,2.3-.4,3.29,.5,.05,.04,.16,0,.24,0,2.09,.17,4.19,.31,6.28,.51,1.02,.1,2.03,.3,3.04,.49,.93,.17,1.99-.46,2.8,.48,.07,.08,.32,0,.48,.02,2.09,.16,4.19,.36,6.28,.49,.96,.06,1.75,.7,2.79,.55,.83-.12,1.78-.29,2.55,.43,.18,.17,.64,.03,.98,.02,1.85-.04,3.58,.64,5.36,.85,2.06,.25,3.98,1,6.04,1.21,1.82,.19,3.57,.98,5.38,1.42,2.48,.61,4.91,1.39,7.31,2.23,3.92,1.37,7.7,3.1,11.45,4.9,4.37,2.1,8.27,4.94,12.38,7.46,1.29,.79,2.35,1.97,3.52,2.96,.92,.78,1.91,1.48,2.78,2.31,2.11,2.02,3.92,4.29,5.66,6.63,.87,1.17,2.36,1.81,2.82,3.33,2.42,1.96,3.76,4.96,6.43,6.67v2c-2.43,.18-4.84-.11-7.3,.41-2.51,.53-5.16,0-7.78,.51-2.44,.47-5,.02-7.53,.51-2.37,.46-4.85-.15-7.29,.51-1.32,.35-2.82,0-4.23,.08-1.35,.08-2.69,.35-4.04,.47-2.18,.2-4.36-.24-6.56,.43-1.29,.4-2.83,.21-4.22,.03-1.43-.18-2.67,.51-4.04,.56-2.27,.08-4.51-.04-6.8,.38-2.61,.48-5.34,.04-8.03,.54-2.29,.43-4.66-.01-7.04,.46-2.52,.5-5.17,.01-7.78,.52-2.37,.46-4.83-.02-7.29,.49-2.44,.5-5,0-7.53,.5-2.44,.49-5,0-7.53,.5-2.44,.48-5,.01-7.53,.5-2.44,.47-5,.04-7.53,.5-2.45,.44-5,.02-7.53,.51-2.37,.46-4.83,.05-7.29,.47-2.61,.45-5.34,.05-8.03,.55-2.22,.41-4.52-.22-6.8,.48-1.29,.4-2.83,.21-4.22,.03-1.43-.19-2.67,.51-4.04,.56-2.43,.09-4.84-.09-7.3,.38-2.6,.49-5.34,.06-8.03,.54-2.3,.41-4.67,.06-7.04,.46-2.62,.44-5.34,.05-8.03,.55-2.22,.42-4.53-.28-6.8,.49-1.05,.35-2.32,0-3.47,.08-1.12,.09-2.22-.17-3.38,.26-1.03,.37-2.27,.28-3.4,.2-2.96-.2-5.82,.89-8.79,.53-.68-.08-1.01,.4-1.19,.99-1.07-.15,0-1.49-.96-1.71-1.25-2.58-2.54-5.11-3.96-7.61-1.99-3.52-4.54-6.53-7.18-9.49-1.08-1.21-2.43-2.16-3.61-3.25-2.48-2.28-5.33-3.88-8.26-5.45-2.74-1.47-5.65-2.47-8.57-3.44-1.47-.49-3.06-.64-4.57-1.04-1.6-.42-3.28-.3-4.85-.94-.71-.29-1.75,.11-2.39-.25-.91-.52-1.79-.29-2.63-.24-.87,.05-1.49-.63-2.29-.54-3.37,.35-6.67-.72-10.03-.5-3.01,.19-6.01-.25-9.05,.41-2.18,.48-4.52-.01-6.78,.53-1.29,.31-2.69,.01-4.05,.5-.96,.34-2.3-.19-3.12,.28-1.1,.64-2.25-.21-3.28,.58-.79,.6-2.09-.16-2.95,.69-2.8,.04-5.34,1.24-7.81,2.26-5.13,2.11-9.72,5.22-13.7,9.12-1.75,1.71-3.36,3.57-4.95,5.44-1.23,1.45-2.43,2.96-3.43,4.57-2.17,3.48-4.2,7.05-6.02,10.74-.48,.97-.92,1.97-1.52,2.86-.63,.94-.65,2.17-1.48,2.99-.42,0-.95,.16-1.22-.04-.51-.38-.83-.72-1.44-.11-.22,.22-.77,.12-1.17,.14-2.35,.16-4.67-.07-7.05,.41-2.52,.5-5.17,.01-7.78,.52-2.37,.46-4.83-.02-7.29,.49-2.44,.5-5-.01-7.53,.5-2.44,.49-5,0-7.53,.5-2.44,.48-5,.01-7.54,.5-2.45,.47-5,.04-7.53,.5-2.45,.45-5,.02-7.53,.51-2.37,.46-4.83,.05-7.29,.47-2.61,.45-5.34,.05-8.03,.55-2.22,.41-4.52-.22-6.8,.48-1.29,.39-2.83,.21-4.22,.03-1.43-.19-2.67,.52-4.04,.56-2.27,.07-4.51-.05-6.81,.37-2.6,.48-5.34,.06-8.03,.54-2.3,.41-4.67,.06-7.04,.46-2.62,.44-5.34,.05-8.03,.55-2.22,.42-4.52-.23-6.8,.48-1.29,.4-2.83,.21-4.22,.03-1.43-.19-2.67,.51-4.04,.56-2.27,.08-4.51-.03-6.8,.38-2.77,.49-5.67,0-8.53,.54-2.29,.43-4.68-.14-7.04,.5-1.32,.36-2.82,0-4.23,.08-1.35,.08-2.69,.35-4.04,.47-2.18,.2-4.36-.24-6.56,.44-1.29,.4-2.83,.21-4.22,.03-1.43-.18-2.67,.51-4.04,.56-2.27,.08-4.51-.04-6.8,.38-2.61,.48-5.34,.04-8.03,.54-2.29,.43-4.68-.18-7.04,.49-1.31,.37-2.82,0-4.23,.08-1.43,.08-2.86,.35-4.29,.47-2.09,.19-4.19-.23-6.31,.44-1.21,.38-2.65,0-3.97,.09-1.27,.08-2.53,.31-3.79,.48-.15-1.56,.67-2.91,1.13-4.29,1.03-3.14,2.48-6.13,3.63-9.23,1.45-3.92,3.49-7.55,5.19-11.34,1.46-3.27,3.56-6.05,5.6-8.92,1.5-2.12,3.05-4.21,4.39-6.43,1.12-1.84,2.49-3.46,3.76-5.17,1.69-2.27,3.58-4.38,5.38-6.55,1.51-1.83,3.21-3.34,4.97-4.88,1.69-1.49,3.47-2.86,5.22-4.27,4.67-3.77,10-6.3,15.35-8.85,1.24-.59,2.55-1.07,3.85-1.56,1.29-.49,2.59-.98,3.88-1.49,1.29-.51,2.62-1,3.92-1.36,1.27-.35,2.53-.78,3.81-1.08,1.29-.3,2.56-.64,3.84-.97,1.54-.4,3.18-.39,4.78-.56,.4-.04,.94,.05,1.16-.17,1.2-1.16,2.84-.81,4.24-1.24,1.65-.52,3.5-.39,5.26-.59,.85-.1,1.69-.33,2.54-.48,.77-.14,1.66,.32,2.31-.47,.07-.09,.31-.02,.48-.04,1.93-.17,3.86-.36,5.79-.49,1.03-.07,1.92-.72,3.05-.56,.91,.13,1.96,.36,2.79-.44,.09-.08,.32,0,.49-.01,3.01-.16,6.06-.12,9.03-.56,3.1-.46,6.25-.04,9.28-.55,2.88-.48,5.71-.2,8.55-.39,2.68-.18,5.36-.4,8.04-.48,2.75-.08,5.5-.02,8.24-.02,1.63-.16,3.12,.71,4.78,.53,1.56-.16,3.16-.03,4.74-.03h87.79c.75,0,1.5,.03,2.24-.02,.14,0,.26-.31,.4-.48,1.66,0,3.4-.3,4.97,.07,2.6,.61,5.19,.35,7.79,.42,2.58,.06,5.15,.01,7.73,.01,.39,1.07,1.29,.46,1.89,.46,15.06,.04,30.13,.04,45.19,.04,.5,0,1,.04,1.5-.02,.15-.02,.27-.31,.4-.48Z"/><path class="p" d="M571.21,442.23c.04,1.55,1.25,2.49,1.96,3.68,1.96,3.28,4.01,6.5,6.03,9.75,1.57,2.52,3.16,5.02,4.72,7.54,1.6,2.59,3.21,5.17,4.86,7.71,1.92,2.95,3.78,5.96,5.73,8.89,1.77,2.67,3.45,5.39,5.13,8.12,1.27,2.05,2.49,4.13,3.71,6.21,.79,1.34,1.58,2.68,2.33,4.03,1.13,2.03,2.26,4.06,3.32,6.12,2.97,5.76,5.98,11.51,8.81,17.34,1.61,3.32,3.17,6.67,4.4,10.17,.46,1.29,1.18,2.5,1.68,3.8,.84,2.15,1.66,4.31,2.43,6.49,.82,2.32,1.67,4.64,2.46,6.97,.57,1.68,1.03,3.4,1.61,5.08,.56,1.62,.78,3.36,1.34,4.94,.97,2.71,1.4,5.56,2.31,8.28,.54,1.61,.65,3.37,1.11,5.04,.9,3.3,1.23,6.75,2.47,9.97-.05,3.05,1.72,5.77,1.57,8.86-.03,.75,.17,1.59,.5,2.28,.6,1.24,.28,2.55,.5,3.8,.78,4.42,.4,8.86,.46,13.29,.06,4.41-.3,8.86,.12,13.23,.29,3.03,.33,6.03,.38,9.05,.05,3.08,.02,6.16,0,9.24,0,1.12,.01,2.21-.45,3.31-.39,.92,.33,2.08-.51,3.05-.25,.29-.1,.97-.03,1.46,.37,2.63-.59,5.07-1.17,7.52-.71,3.02-1.61,6-2.38,9-.93,3.59-2.05,7.13-3.18,10.66-2.18,6.79-5.16,13.21-8.56,19.43-1.91,3.49-4.04,6.87-6.4,10.12-2.13,2.94-4.41,5.78-6.48,8.77-1.15,1.66-2.62,3.12-4.04,4.58-3.2,3.27-6.33,6.64-9.75,9.68-2.7,2.39-5.19,5.06-8.33,6.96-1.09,.66-1.99,1.64-2.99,2.44-1.56,1.25-3.08,2.56-4.72,3.7-3.48,2.41-7.03,4.73-10.55,7.08-1.49,.99-3.04,1.86-4.62,2.7-2.25,1.2-4.4,2.6-6.73,3.67-4.28,1.95-8.56,3.91-13.06,5.25-2.45,.72-4.81,1.69-7.34,2.24-1.89,.41-3.81,.81-5.7,1.27-1.36,.33-2.78,.44-4.11,.94-.22,.08-.47,.07-.71,.09-2.01,.17-4.08,.1-6.03,.55-3.27,.76-6.54,.34-9.8,.43-3.25,.09-6.5,.06-9.74,0-.93-.02-1.86-.33-2.79-.47-.85-.13-1.83,.33-2.54-.5-1.7,.11-3.28-.33-4.88-.89-1.53-.54-3.06-1.09-4.6-1.55-2.81-.83-5.27-2.27-7.66-3.83-1.87-1.22-3.76-2.48-5.28-4.18-.37-.41-.86-.98-1.31-.99-1.02-.02-2.05-.27-3.11,.29-2.07,1.09-4.08,2.27-6,3.58-1.79,1.22-3.45,2.6-5.12,3.99-1.72,1.44-3.62,2.71-5.62,3.83-2.26,1.26-4.59,2.21-7.04,2.94-.14,.04-.26,.29-.38,.28-2.28-.09-4.53,1.05-6.78,.47-2.6-.67-5.29-.77-7.91-1.35-2.06-.45-4.17-.91-6.3-1.17-2.22-.27-4.4-.98-6.57-1.59-5.13-1.45-10.22-3.01-15.23-4.85-1.95-.71-3.91-1.42-5.83-2.22-4.62-1.94-9.2-3.96-13.63-6.3-3.02-1.59-5.86-3.52-8.87-5.15-3.17-1.72-6.07-3.86-9.06-5.85-2.45-1.62-4.66-3.6-7.07-5.28-2.16-1.5-4.01-3.4-6.25-4.8-.14-.09-.23-.24-.36-.35-6.01-5.22-11.54-10.94-17.07-16.64-2.86-2.95-5.47-6.16-7.95-9.44-3.43-4.53-6.69-9.19-9.9-13.88-1.75-2.57-3.25-5.31-4.84-7.98-2.81-4.72-5.36-9.58-7.72-14.54-1.46-3.08-2.61-6.28-3.28-9.63-.44-2.18-.66-4.41-1.09-6.56-.46-2.3-.24-4.54-.41-6.81-.04-.55,.17-1.11-.32-1.63-.22-.24-.27-.82-.15-1.15,.96-2.73,.29-5.53,.47-8.3,.15-2.43,.81-4.83,.51-7.29,.81-1.44,.37-3.02,.51-4.54,.09-.94,.39-1.86,.47-2.79,.08-.99-.36-2.28,.11-2.93,.64-.87-.11-2.06,.91-2.65-.21-3,1.6-5.64,1.5-8.62,1.23-3.69,1.77-7.56,2.87-11.29,.65-2.22,1.13-4.54,1.65-6.83,.53-2.35,1.13-4.69,1.82-6.99,.3-.98-.23-2.14,.66-2.97-.29-1.9,.95-3.46,1.14-5.29,.17-1.67,1.04-3.25,1.31-4.92,.25-1.49,.86-2.86,1.37-4.19,.74-1.94,1.48-3.91,2.07-5.87,.58-1.91,1.72-3.73,1.6-5.84,1.26-2.99,2.11-6.12,3.13-9.2,1.74-5.27,3.55-10.52,5.37-15.76,1.04-2.98,2.15-5.94,3.28-8.89,.9-2.37,1.89-4.71,2.77-7.1,.47-1.28,1.13-2.52,1.67-3.8,1.27-3.05,2.69-6.05,4.03-9.07,1.31-2.95,2.58-5.93,3.89-8.88,1.5-3.38,2.94-6.78,4.57-10.1,1.69-3.46,3.21-7,4.77-10.51,1.72-3.87,3.49-7.72,5.27-11.56,.87-1.89,1.95-3.72,2.62-5.65,.7-2,1.74-3.78,2.63-5.66,.77-1.63,1.14-3.29,.98-5.08,.71-1.62,1.91-2.89,3-4.24,.97-1.19,2.15-2.23,2.95-3.52,1.55-2.49,3.48-4.68,5.16-7.07,1.53-2.18,3.08-4.33,4.38-6.66,1.29-2.04,2.64-4.05,3.86-6.13,.97-1.66,1.57-3.57,2.7-5.09,2.2-2.96,3.37-6.45,5.33-9.54,2.04-3.23,3.36-6.91,5.13-10.31,.86-1.66,1.68-3.43,3.47-4.4,3.57,2.38,4.15,6.64,3.04,10.44-.55,1.87-1.56,3.51-2.16,5.36-.49,1.52-1.48,2.83-1.98,4.43-.49,1.58-1.39,3.08-2.1,4.61-1.85,3.98-3.68,7.96-5.42,11.98-1.31,3.03-2.72,6.03-4.09,9.04-1.62,3.57-3.32,7.11-4.81,10.74-.7,1.71-1.64,3.31-2.35,5.02-.74,1.78-1.66,3.46-2.37,5.26-1.41,3.57-3.14,7.02-4.76,10.51-1.45,3.14-2.89,6.28-4.21,9.49-1.2,2.91-2.67,5.72-4.03,8.56-.2,.42-.63,.79-.67,1.21-.17,1.87-1.48,3.22-2.11,4.88-.66,1.72-1.54,3.35-2.32,5.03-.97,2.09-2.03,4.15-2.65,6.5,0,.04,0-.04,0-.11-.13,.05-.27,.07-.38,.15-.03,.02,.05,.2,.08,.3,.1-.08,.2-.15,.3-.34,.31-.17,.64-.17,.92-.29,1.34-.59,2.62-1.34,4-1.79,4.03-1.32,7.85-3.17,11.85-4.58,1.95-.69,3.77-1.8,5.74-2.4,3.92-1.19,7.6-2.97,11.45-4.33,3.92-1.39,7.79-2.9,11.75-4.2,3.96-1.3,7.91-2.62,11.89-3.86,2.51-.78,5.06-1.48,7.61-2.12,2.35-.59,4.77-.91,7.07-1.64,2.46-.79,4.97-1.34,7.48-1.8,2.09-.38,4.25-.7,6.29-1.2,2.21-.53,4.48-.67,6.67-1.31,.95-.28,2.02-.29,3.03-.52,1.07-.24,2.18-.13,3.3-.47,1.18-.36,2.5-.18,3.78-.51,1.29-.33,2.68-.15,4.04-.5,1.37-.35,2.85-.01,4.29-.51,.89-.31,1.98,0,2.98-.08,1.02-.09,2.02-.38,3.04-.47,2.01-.18,4.01,.05,6.06-.42,1.9-.44,3.99-.22,5.97-.06,2.07,.17,4.01-.58,6.04-.54,2.16,.04,4.34,.11,6.49-.02,2.13-.13,4.1,.47,6.08,1.05,2.53,.73,5.58,4.17,6.08,6.68,.17,.85,.4,1.69,.48,2.54,.08,.91,.03,1.83,.02,2.75-.02,1.86-1.04,3.5-2.82,3.95-1.05,.26-2.09,.65-3.28,.6-3.41-.14-6.83-.12-10.24-.03-3.43,.09-6.89-.44-10.29,.48-3.54-.35-7.01,.58-10.54,.53-.84-.01-1.69,.38-2.54,.45-.91,.08-1.83,.02-2.75,.02-.08,0-.21-.04-.24,0-.8,.95-1.87,.32-2.8,.49-1.01,.19-2.02,.38-3.04,.5-1.68,.2-3.45,.06-5.02,.57-2.35,.76-4.82,.65-7.16,1.39-1.27,.4-2.74,.19-4.01,.6-1.02,.34-2.09,.19-3.02,.53-1.77,.65-3.63,.98-5.43,1.3-1.86,.34-3.72,.8-5.53,1.23-1.93,.47-3.92,.87-5.81,1.61-1.86,.73-3.98,.72-5.77,1.75-3.38,.27-6.33,2.06-9.61,2.77-2.38,.52-4.63,1.67-6.97,2.44-2.41,.79-4.68,2.01-7.1,2.74-2.6,.78-5.04,1.92-7.55,2.89-3.44,1.34-6.86,2.78-10.21,4.3-4.42,2-8.8,4.08-13.21,6.11-2.24,1.03-4.45,2.14-6.65,3.23-2.95,1.47-5.82,3.07-8.32,5.24-1.79,1.55-3.51,3.18-5.28,4.76-.23,.2-.54,.32-.79,.49-1.83,1.26-3.19,2.92-3.92,5.01-1.32,3.78-2.41,7.63-3.94,11.36-1.17,2.83-2.04,5.83-2.91,8.78-.9,3.04-1.98,6.03-2.81,9.1-.98,3.64-2.49,7.14-3.36,10.84-.21,.89-.76,1.7-.96,2.59-.61,2.81-1.57,5.52-2.3,8.3-.72,2.7-1.58,5.35-2.22,8.07-.53,2.27-1.07,4.55-1.65,6.81-.58,2.25-1.5,4.46-1.76,6.74-.24,2.06-1.34,3.95-1.08,6.07-1.08,.89-.2,2.27-.91,3.39-.58,.91-.39,2.31-.6,3.48-.11,.61-.38,1.19-.47,1.8-.1,.64,.04,1.34-.13,1.95-.44,1.52-.84,3.04-.88,4.63-.01,.42,.17,1.02-.03,1.21-.76,.7-.34,1.55-.47,2.32-.15,.85-.39,1.69-.48,2.54-.14,1.35,0,2.68-.43,4.06-.4,1.29-.02,2.81-.1,4.22-.08,1.43-.39,2.86-.46,4.29-.08,1.66-.1,3.33,0,4.99,.17,2.85-.18,5.67,.37,8.56,.53,2.72,1.33,5.29,2.39,7.78,2.07,4.86,4.84,9.37,7.76,13.77,2.26,3.41,4.49,6.84,6.9,10.15,1.88,2.57,3.76,5.13,5.8,7.57,1.15,1.37,2.55,2.57,3.47,4.07,.84,1.37,2.07,2.29,3.06,3.47,1,1.17,1.93,2.41,3.02,3.49,1.75,1.72,3.42,3.5,5.38,5.02,2.12,1.64,3.82,3.81,6.01,5.44,1.36,1.01,2.52,2.31,3.88,3.32,3.37,2.47,6.8,4.87,10.23,7.25,3.45,2.4,7.11,4.47,10.82,6.44,5.45,2.89,10.98,5.6,16.78,7.73,1.23,.45,2.45,.91,3.71,1.3,1.31,.41,2.56,1.03,3.88,1.48,3.73,1.27,7.54,2.29,11.32,3.4,1.4,.41,2.87,.71,4.32,1.05,1.15,.27,2.44,.14,3.51,.58,1.18,.48,2.44,.54,3.63,.84,1.97,.5,4.04,.7,6.06,1.08,1.7,.32,3.32-.44,4.97-.66,1.11-.15,2.22-.68,3.23-1.21,2.8-1.46,5.29-3.42,7.78-5.32,4.09-3.12,8.36-5.98,12.48-9.04,1.9-1.42,3.78-1.19,5.76-1.19,.64,0,1.34,.4,1.9,.78,1.85,1.27,3.71,2.52,5.28,4.2,1.33,1.42,2.8,2.76,4.39,3.87,1.51,1.05,3.28,1.71,4.9,2.61,1.63,.92,3.46,1.45,5.2,1.88,2.85,.71,5.86,1.05,8.8,1.04,5.01-.01,10.04,.54,15.04-.4,1.65-.31,3.42,.28,5.03-.53,2.45,.27,4.71-.76,7.07-1.09,.99-.14,2.07-.16,3.02-.5,2.12-.77,4.33-1.16,6.46-1.87,3.73-1.24,7.47-2.5,11.02-4.15,5.77-2.68,11.29-5.86,16.62-9.36,3.23-2.12,6.41-4.31,9.49-6.64,1.6-1.21,3.11-2.54,4.74-3.66,2.59-1.79,4.98-3.84,7.22-5.96,4.95-4.68,9.83-9.45,14.07-14.85,2.26-2.89,4.54-5.77,6.63-8.78,2.09-3.01,4.21-6.06,5.79-9.34,2.34-4.85,4.97-9.56,6.87-14.64,1.1-2.96,1.71-6.1,3.24-8.9,.27-3.22,2.05-6.12,2-9.41,1.1-2.07,.92-4.43,1.43-6.64,.55-2.38,.81-4.89,.96-7.32,.15-2.52,.64-5,.62-7.53-.02-3.41,.09-6.83-.03-10.24-.17-4.68,.47-9.36-.42-14.04-.4-2.12,.09-4.36-.51-6.54-.35-1.28,0-2.67-.47-4.05-.43-1.23-.31-2.68-.47-4.03-.31-2.62-.7-5.22-1.15-7.81-.22-1.27-.21-2.6-.55-3.77-.4-1.36-.5-2.76-.89-4.11-.39-1.34-.67-2.72-1.01-4.08-.66-2.64-1.28-5.29-2.01-7.91-.72-2.61-1.56-5.18-2.35-7.77-1.32-4.35-2.97-8.59-4.59-12.84-1.62-4.25-3.34-8.45-5.3-12.54-.23-.49-.56-.94-.73-1.45-1.24-3.84-3.28-7.34-5.2-10.83-2.16-3.94-4.4-7.87-6.76-11.71-2.11-3.44-4.16-6.94-6.31-10.35-1.88-2.97-3.76-5.98-5.63-8.95-1.97-3.14-3.94-6.33-5.84-9.54-2.14-3.63-4.57-7.1-6.76-10.7-1.7-2.8-3.56-5.49-5.23-8.32-1.91-3.24-4.22-6.24-6.26-9.41-2.07-3.21-4-6.51-6.02-9.74-.96-1.53-2.01-2.99-2.99-4.51-1.56-2.43-3.09-4.88-4.65-7.32-1.94-3.03-4-5.99-5.82-9.09-1.78-3.04-3.86-5.87-5.68-8.88-2.22-3.67-4.6-7.25-6.83-10.92-1-1.65-1.69-3.48-2.72-5.11-1.97-3.13-4.11-7.31-4.7-10.29-.26-1.33-.1-2.78,.07-4.16,.07-.55,.58-1.13,1.03-1.54,.51-.46,1.15-.93,1.79-1.04,.97-.17,2-.13,2.98,0,.41,.05,.73,.72,1.15,.81,1.32,.28,1.68,1.75,2.86,2.15,.23,.65,.38,1.35,.72,1.95,1.66,2.96,2.81,6.16,4.29,9.2,2.02,4.17,4.13,8.33,6.68,12.19,2.63,3.97,5.21,8,8.3,11.65,.72,1.5,1.81,2.74,2.77,4.09,2.87,4.03,5.8,8.03,8.58,12.12,2.68,3.95,5.53,7.79,8.14,11.78l.5,.5c.08,.38-.25,.96,.5,1Z"/><path class="m" d="M550.72,412.75c-3.09-3.65-5.67-7.68-8.3-11.65-2.55-3.85-4.66-8.01-6.68-12.19-1.48-3.04-2.62-6.24-4.29-9.2-.33-.59-.48-1.29-.72-1.95-.05-.47-.06-.95-.17-1.41-.29-1.19-.89-2.32-.83-3.59,.18-.59,.51-1.07,1.19-.99,2.96,.36,5.83-.74,8.79-.53,1.13,.08,2.38,.17,3.4-.2,1.16-.42,2.26-.17,3.38-.26,1.16-.09,2.43,.27,3.47-.08,2.27-.77,4.58-.07,6.8-.49,2.68-.5,5.41-.11,8.03-.55,2.37-.4,4.74-.05,7.04-.46,2.69-.48,5.42-.05,8.03-.54,2.46-.46,4.87-.28,7.3-.38,1.37-.05,2.61-.75,4.04-.56,1.39,.18,2.92,.36,4.22-.03,2.28-.7,4.58-.06,6.8-.48,2.68-.5,5.41-.1,8.03-.55,2.46-.42,4.92-.01,7.29-.47,2.53-.49,5.08-.06,7.53-.51,2.53-.46,5.09-.04,7.53-.5,2.54-.48,5.09-.02,7.53-.5,2.54-.5,5.09-.01,7.53-.5,2.54-.51,5.1,0,7.53-.5,2.46-.51,4.92-.03,7.29-.49,2.61-.51,5.26-.02,7.78-.52,2.38-.47,4.75-.04,7.04-.46,2.69-.5,5.42-.06,8.03-.54,2.3-.42,4.54-.3,6.8-.38,1.37-.05,2.61-.74,4.04-.56,1.39,.18,2.92,.36,4.22-.03,2.2-.67,4.38-.23,6.56-.43,1.35-.13,2.69-.39,4.04-.47,1.41-.08,2.91,.27,4.23-.08,2.44-.65,4.92-.05,7.29-.51,2.53-.49,5.09-.04,7.53-.51,2.62-.5,5.27,.02,7.78-.51,2.46-.52,4.88-.23,7.3-.41,.33,.26,.88,.47,.96,.8,.34,1.35,1.35,2.27,2,3.4,1.32,2.28,2.68,4.53,4.03,6.79-.1,1.24,.8,2.16,1.13,3.26,.75,2.47,2.09,4.75,3.03,7.17,1.43,3.71,3.09,7.33,4.36,11.1,.46,1.37,1.15,2.67,1.77,3.98,.52,1.12,1,2.24,1.21,3.47v1c-1.12,.01-2.21,.29-3.3,.42-2.65,.31-5.35,.02-8.03,.53-2.29,.43-4.66,.02-7.04,.45-2.6,.48-5.34,.09-8.02,.54-2.47,.42-5,.02-7.54,.46-2.61,.46-5.34,.05-8.02,.55-2.22,.41-4.51-.22-6.8,.48-1.29,.4-2.83,.21-4.22,.03-1.43-.19-2.67,.51-4.04,.56-2.26,.08-4.51-.04-6.8,.38-2.61,.48-5.34,.05-8.02,.54-2.29,.42-4.68-.14-7.04,.49-1.32,.36-2.82,0-4.23,.08-1.35,.08-2.69,.35-4.04,.47-2.17,.2-4.36-.24-6.55,.44-1.29,.4-2.83,.21-4.22,.03-1.43-.18-2.67,.51-4.04,.56-2.26,.09-4.51-.04-6.8,.38-2.6,.48-5.34,.03-8.02,.54-2.29,.43-4.66,.02-7.04,.45-2.6,.48-5.34,.08-8.02,.54-2.3,.4-4.67,.06-7.04,.46-2.61,.44-5.34,.05-8.02,.55-2.22,.41-4.51-.22-6.8,.48-1.29,.4-2.83,.21-4.22,.03-1.43-.19-2.67,.51-4.04,.56-2.26,.08-4.51-.04-6.8,.38-2.61,.48-5.34,.05-8.02,.54-2.29,.42-4.67,.08-7.04,.46-2.87,.45-5.85,.03-8.77,.56-2.14,.39-4.35-.19-6.55,.47-1.38,.41-2.98,.01-4.47,.09-1.52,.08-3.02,.38-4.54,.46-1.58,.08-3.16,.02-4.74,.02Z"/><path class="h" d="M400.79,383.27c-1.79,.97-2.61,2.75-3.47,4.4-1.77,3.41-3.09,7.08-5.13,10.31-1.95,3.09-3.13,6.58-5.33,9.54-1.13,1.52-1.73,3.43-2.7,5.09-1.22,2.08-2.56,4.09-3.86,6.13-.51-.17-1.02-.41-1.54-.48-.65-.08-1.34-.08-1.99,0-.61,.08-1.19,.44-1.79,.46-2.68,.09-5.35-.03-8.04,.46-2.29,.42-4.68-.14-7.04,.49-1.32,.36-2.82,0-4.22,.08-1.35,.08-2.69,.35-4.04,.47-2.17,.2-4.35-.24-6.55,.44-1.29,.4-2.83,.22-4.22,.03-1.44-.19-2.67,.51-4.04,.56-2.26,.09-4.5-.06-6.8,.38-2.6,.5-5.33,.03-8.02,.54-2.29,.43-4.68-.17-7.04,.49-1.39,.39-2.98,0-4.47,.09-1.52,.08-3.02,.33-4.54,.48-1.93,.19-3.85-.21-5.81,.43-1.28,.41-2.82,.22-4.21,.04-1.51-.2-2.83,.53-4.29,.57-2.18,.05-4.36-.28-6.56,.4-1.29,.4-2.82,.21-4.22,.03-1.43-.19-2.67,.51-4.04,.56-2.26,.08-4.51-.04-6.8,.38-2.6,.48-5.34,.04-8.02,.54-2.29,.43-4.68-.18-7.04,.49-1.31,.37-2.81,0-4.22,.09-1.43,.08-2.86,.35-4.29,.47-2.09,.19-4.17,.02-6.3,.4-2.69,.47-5.51,.05-8.27,.56-2.22,.41-4.51-.2-6.8,.47-1.38,.41-2.99,.21-4.47,.04-1.51-.17-2.84,.5-4.29,.56-2.26,.08-4.51-.05-6.8,.38-2.6,.48-5.33,.05-8.02,.54-2.29,.42-4.68-.14-7.04,.49-1.32,.36-2.82,0-4.22,.08-1.35,.08-2.69,.35-4.04,.47-2.17,.2-4.35-.22-6.55,.43-1.38,.41-2.98,.01-4.47,.09-1.52,.08-3.02,.38-4.54,.46-1.41,.08-2.83,.02-4.24,.02,0-1.79,.02-3.58-.02-5.37,0-.21-.31-.42-.48-.62,0-.17-.06-.37,0-.49,1.09-2.01,1.12-4.34,1.94-6.44,.36-.92,.06-2,.47-3.05,.38-.98,.41-2.2,.48-3.26,.16-2.33,1.19-4.48,1.09-6.82,.82-.79,.28-1.87,.6-2.75,.85-2.32,.87-4.79,1.4-7.16,.78-.26,.63-1.1,1.01-1.62,.12-.16,.33-.26,.49-.38,1.26-.17,2.52-.4,3.79-.48,1.33-.08,2.76,.29,3.97-.09,2.11-.66,4.21-.25,6.31-.44,1.43-.13,2.86-.39,4.29-.47,1.41-.08,2.92,.29,4.23-.08,2.36-.67,4.75-.06,7.04-.49,2.69-.5,5.42-.06,8.03-.54,2.3-.42,4.54-.3,6.8-.38,1.37-.05,2.61-.74,4.04-.56,1.39,.18,2.92,.36,4.22-.03,2.2-.67,4.38-.23,6.56-.44,1.35-.13,2.69-.39,4.04-.47,1.41-.08,2.91,.27,4.23-.08,2.36-.64,4.75-.07,7.04-.5,2.86-.53,5.75-.05,8.53-.54,2.3-.41,4.54-.3,6.8-.38,1.37-.05,2.61-.75,4.04-.56,1.39,.18,2.93,.36,4.22-.03,2.28-.7,4.58-.06,6.8-.48,2.68-.5,5.41-.11,8.03-.55,2.37-.4,4.74-.05,7.04-.46,2.69-.48,5.42-.06,8.03-.54,2.3-.43,4.54-.3,6.81-.37,1.37-.05,2.61-.75,4.04-.56,1.39,.18,2.92,.36,4.22-.03,2.28-.7,4.58-.06,6.8-.48,2.68-.5,5.41-.1,8.03-.55,2.46-.42,4.92-.01,7.29-.47,2.53-.49,5.08-.06,7.53-.51,2.53-.46,5.09-.04,7.53-.5,2.54-.48,5.09-.02,7.54-.5,2.54-.5,5.1,0,7.53-.5,2.54-.51,5.1,0,7.53-.5,2.46-.51,4.92-.03,7.29-.49,2.61-.51,5.26-.02,7.78-.52,2.38-.48,4.71-.25,7.05-.41,.4-.03,.95,.08,1.17-.14,.61-.61,.93-.27,1.44,.11,.27,.2,.81,.04,1.22,.04v.5l-.5,.5c-.35,.99-1.23,1.81-1,3Z"/><path class="r" d="M550.72,412.75c1.58,0,3.17,.06,4.74-.02,1.52-.08,3.02-.38,4.54-.46,1.49-.08,3.09,.31,4.47-.09,2.2-.65,4.41-.08,6.55-.47,2.93-.53,5.9-.11,8.77-.56,2.37-.37,4.74-.04,7.04-.46,2.69-.49,5.42-.06,8.02-.54,2.29-.42,4.54-.3,6.8-.38,1.37-.05,2.61-.75,4.04-.56,1.39,.18,2.92,.36,4.22-.03,2.28-.7,4.58-.06,6.8-.48,2.68-.5,5.41-.11,8.02-.55,2.37-.4,4.74-.06,7.04-.46,2.69-.47,5.42-.07,8.02-.54,2.38-.44,4.75-.02,7.04-.45,2.69-.51,5.42-.06,8.02-.54,2.29-.42,4.54-.3,6.8-.38,1.37-.05,2.61-.74,4.04-.56,1.39,.18,2.92,.36,4.22-.03,2.2-.67,4.38-.23,6.55-.44,1.35-.13,2.69-.39,4.04-.47,1.41-.08,2.91,.27,4.23-.08,2.36-.64,4.74-.08,7.04-.49,2.69-.49,5.42-.06,8.02-.54,2.29-.42,4.54-.3,6.8-.38,1.37-.05,2.61-.75,4.04-.56,1.39,.18,2.92,.36,4.22-.03,2.28-.7,4.58-.06,6.8-.48,2.68-.5,5.41-.09,8.02-.55,2.54-.44,5.07-.04,7.54-.46,2.69-.45,5.42-.06,8.02-.54,2.38-.44,4.75-.02,7.04-.45,2.69-.51,5.38-.22,8.03-.53,1.08-.13,2.18-.4,3.3-.42,.17,.13,.37,.23,.49,.4,.96,1.29,.06,3.01,1.01,4.31,0,2.16,.82,4.17,1.1,6.3,.17,1.34,.56,2.73,.87,4.09,.33,1.47,.18,3.06,.59,4.5,.39,1.36,.12,2.79,.54,4.01,.34,.98,.29,1.88,.41,2.81,.13,1.01,.36,2.02,.48,3.03,.07,.66-.05,1.33,.03,1.99,.09,.69,.32,1.36,.48,2.04v1c-2.43,.18-4.84-.11-7.3,.41-2.51,.53-5.16,0-7.78,.51-2.44,.47-5,.02-7.53,.51-2.37,.46-4.83,.01-7.29,.48-2.52,.48-5.17,.02-7.78,.52-2.37,.45-4.83-.01-7.29,.49-2.44,.49-5,0-7.53,.5-2.44,.48-5,0-7.53,.5-2.44,.47-5,.03-7.53,.5-2.45,.46-5,.02-7.53,.51-2.37,.46-4.83,.06-7.29,.47-2.78,.46-5.68,0-8.53,.55-2.22,.42-4.52-.22-6.8,.48-1.29,.4-2.83,.21-4.22,.03-1.43-.19-2.67,.51-4.04,.56-2.27,.08-4.51-.04-6.8,.38-2.61,.48-5.34,.05-8.03,.54-2.3,.42-4.67,.02-7.04,.47-2.52,.48-5.17,.02-7.78,.52-2.37,.46-4.83-.01-7.29,.49-2.44,.49-5,0-7.53,.5-2.44,.48-5,0-7.53,.5-2.44,.47-5,.03-7.53,.5-2.45,.46-5,.02-7.53,.51-2.37,.46-4.83,.02-7.29,.48-2.52,.48-5.18-.05-7.78,.54-1.35,.31-2.82,0-4.23,.08-.52,.02-1.03,.31-1.54,.48-1.21-.92-2.41-1.84-3.07-3.29-.23-.51-.75-.88-1.42-.71-.08-.38,.25-.96-.5-1-.17-.17-.33-.33-.5-.5-2.62-3.99-5.46-7.83-8.14-11.78-2.78-4.09-5.71-8.08-8.58-12.12-.96-1.34-2.04-2.59-2.77-4.09Z"/><path class="q" d="M166.41,432.24c1.41,0,2.83,.06,4.24-.02,1.52-.09,3.02-.38,4.54-.46,1.49-.08,3.09,.31,4.47-.09,2.2-.65,4.38-.23,6.55-.43,1.35-.13,2.69-.39,4.04-.47,1.41-.08,2.91,.27,4.22-.08,2.36-.64,4.74-.08,7.04-.49,2.69-.49,5.42-.06,8.02-.54,2.3-.42,4.54-.29,6.8-.38,1.45-.05,2.78-.73,4.29-.56,1.48,.17,3.09,.37,4.47-.04,2.28-.67,4.58-.06,6.8-.47,2.76-.51,5.58-.09,8.27-.56,2.13-.37,4.21-.21,6.3-.4,1.43-.13,2.85-.39,4.29-.47,1.41-.08,2.91,.29,4.22-.09,2.36-.67,4.75-.06,7.04-.49,2.69-.5,5.42-.06,8.02-.54,2.29-.42,4.54-.3,6.8-.38,1.37-.05,2.61-.74,4.04-.56,1.39,.18,2.92,.36,4.22-.03,2.2-.67,4.38-.34,6.56-.4,1.46-.04,2.78-.77,4.29-.57,1.39,.18,2.93,.38,4.21-.04,1.96-.63,3.88-.24,5.81-.43,1.51-.15,3.02-.39,4.54-.48,1.49-.08,3.08,.3,4.47-.09,2.36-.66,4.75-.05,7.04-.49,2.69-.51,5.42-.05,8.02-.54,2.3-.44,4.54-.29,6.8-.38,1.37-.06,2.6-.75,4.04-.56,1.39,.18,2.92,.36,4.22-.03,2.2-.67,4.38-.23,6.55-.44,1.35-.13,2.69-.39,4.04-.47,1.41-.08,2.91,.27,4.22-.08,2.36-.64,4.74-.08,7.04-.49,2.69-.49,5.36-.37,8.04-.46,.6-.02,1.18-.38,1.79-.46,.65-.08,1.34-.08,1.99,0,.53,.07,1.03,.31,1.54,.48-1.3,2.33-2.85,4.49-4.38,6.66-1.68,2.38-3.61,4.58-5.16,7.07-.8,1.29-1.99,2.33-2.95,3.52-1.09,1.34-2.29,2.62-3,4.24-2.25,3-4.47,6.03-6.77,8.99-.97,1.25-2.14,2.34-3.22,3.5-.51-.17-1.02-.46-1.54-.48-1.61-.04-3.19,.17-4.8,.39-2.64,.36-5.34,.04-8.03,.53-2.3,.42-4.67,.04-7.04,.47-2.69,.49-5.5-.02-8.28,.52-2.37,.46-4.83,0-7.29,.49-2.44,.49-5,0-7.53,.5-2.44,.48-5,.01-7.53,.5-2.44,.47-5,.03-7.53,.5-2.45,.46-5,.02-7.53,.51-2.37,.46-4.83,.05-7.29,.47-2.61,.45-5.34,.05-8.03,.55-2.22,.41-4.52-.22-6.8,.48-1.29,.4-2.83,.21-4.22,.03-1.43-.19-2.67,.51-4.04,.56-2.27,.08-4.51-.04-6.8,.38-2.61,.48-5.34,.05-8.03,.54-2.3,.42-4.68-.14-7.04,.49-1.32,.36-2.82,0-4.23,.08-1.35,.08-2.69,.35-4.04,.47-2.18,.2-4.36-.24-6.56,.43-1.29,.4-2.83,.21-4.22,.03-1.43-.18-2.67,.51-4.04,.56-2.27,.08-4.51-.04-6.8,.38-2.61,.48-5.34,.04-8.03,.54-2.29,.43-4.73-.35-7.02,.56-3.53-.35-7.01,.57-10.53,.49-3.44-.08-6.83,.85-10.28,.54-.41-.04-.86,.31-1.29,.47-.74-.84-.77-1.93-.97-2.93-.41-2-.3-4.1-1.02-6.06-.03-.07,0-.16,0-.25-.17-3.17-.4-6.34-.48-9.51-.08-3.24-.05-6.47,0-9.71,.01-.68,.37-1.35,.46-2.04,.08-.65,.02-1.33,.02-1.99Z"/><path class="k" d="M767.11,467.72c-1.01,4.29-2.6,8.38-4.2,12.49-1.91,4.9-4.87,9.17-7.64,13.55-1.71,2.71-3.74,5.19-5.93,7.55-1.15,1.24-2.12,2.67-3.4,3.81-3.88,3.45-7.84,6.8-12.25,9.58-2.89,1.82-5.8,3.65-8.95,4.92-3.34,1.36-6.58,3.14-10.26,3.56-2.03,1.28-4.48,1.18-6.68,1.94-1.4,.48-3.03,.28-4.51,.58-3.25,.67-6.54,.22-9.77,.57-1.42,.16-2.72-.25-4.09-.13-1.49,.13-3.11,.38-4.46-.06-1.6-.52-3.19-.16-4.74-.58-1.52-.41-3.16-.49-4.62-.93-1.71-.52-3.5-.61-5.19-1.3-1.7-.69-3.58-.93-5.34-1.57-1.66-.61-3.44-.93-5.1-1.55-1.44-.53-2.76-1.36-4.18-1.96-2.55-1.09-5.14-2.1-7.53-3.51-2.67-1.58-5.48-2.9-8.07-4.65-1.87-1.27-3.82-2.43-5.7-3.71-1.83-1.25-3.59-2.59-5.34-3.94-2.93-2.25-5.74-4.67-8.62-6.98-4.48-3.58-14.02-12.98-16.83-16.2,.06-.31,.05-.85,.19-.89,.98-.26,1.99-.49,3-.6,2.17-.22,4.36,.23,6.55-.44,1.29-.4,2.83-.21,4.22-.03,1.43,.18,2.67-.51,4.04-.56,2.26-.09,4.53,.24,6.8-.41,1.31-.38,2.81,0,4.22-.09,1.35-.08,2.69-.36,4.04-.47,2.43-.19,4.86,.23,7.3-.44,1.39-.38,2.98,0,4.47-.09,1.43-.08,2.86-.34,4.29-.47,2.01-.18,4.01-.05,6.05-.4,2.69-.46,5.51-.05,8.27-.56,2.22-.41,4.52,.22,6.8-.48,1.29-.39,2.83-.21,4.22-.03,1.43,.19,2.67-.52,4.04-.56,2.26-.07,4.51,.05,6.8-.38,2.6-.48,5.34-.06,8.02-.54,2.3-.41,4.67-.06,7.04-.46,2.61-.44,5.34-.05,8.02-.55,2.22-.42,4.52,.23,6.8-.47,1.29-.4,2.83-.21,4.22-.03,1.43,.19,2.67-.51,4.04-.56,2.26-.08,4.51,.04,6.8-.38,2.61-.48,5.34-.04,8.02-.54,2.29-.43,4.73,.35,7.02-.56,3.62,.36,7.17-.54,10.78-.52,1.27,0,2.55,.28,3.82-.41,.49-.26,1.4-.29,2.1,.23,.34,.25,.93,.15,1.4,.21Z"/><path class="j" d="M767.11,467.72c-.48-.06-1.06,.04-1.4-.21-.7-.52-1.61-.49-2.1-.23-1.27,.69-2.56,.42-3.82,.41-3.61-.02-7.16,.88-10.78,.52-2.29,.9-4.73,.13-7.02,.56-2.69,.5-5.42,.06-8.02,.54-2.3,.42-4.54,.3-6.8,.38-1.37,.05-2.61,.74-4.04,.56-1.39-.18-2.93-.37-4.22,.03-2.28,.7-4.58,.06-6.8,.47-2.68,.5-5.41,.11-8.02,.55-2.37,.4-4.74,.05-7.04,.46-2.69,.48-5.42,.06-8.02,.54-2.3,.42-4.54,.3-6.8,.38-1.37,.04-2.61,.75-4.04,.56-1.39-.18-2.92-.36-4.22,.03-2.28,.69-4.58,.06-6.8,.48-2.76,.51-5.58,.1-8.27,.56-2.04,.35-4.04,.22-6.05,.4-1.43,.13-2.85,.39-4.29,.47-1.49,.08-3.08-.3-4.47,.09-2.44,.68-4.88,.25-7.3,.44-1.35,.11-2.69,.39-4.04,.47-1.41,.08-2.92-.29-4.22,.09-2.28,.66-4.54,.33-6.8,.41-1.37,.05-2.61,.74-4.04,.56-1.39-.18-2.92-.36-4.22,.03-2.2,.67-4.38,.22-6.55,.44-1.01,.1-2.02,.34-3,.6-.13,.03-.13,.58-.19,.89-1.57-1.28-3.18-2.52-4.15-4.38-.15-.28-.47-.47-.69-.71-2.18-2.34-4.51-4.57-6.49-7.07-1.94-2.45-4.16-4.66-5.9-7.28-.8-1.2-1.86-2.24-2.8-3.34-1.98-2.31-3.88-4.68-5.68-7.13-.75-1.02-1.85-1.79-2.27-3.07,.51-.17,1.02-.45,1.54-.48,1.41-.07,2.89,.23,4.23-.08,2.6-.59,5.26-.06,7.78-.54,2.46-.46,4.92-.02,7.29-.48,2.53-.49,5.09-.05,7.53-.51,2.53-.47,5.09-.03,7.53-.5,2.54-.49,5.09-.02,7.53-.5,2.54-.5,5.09,0,7.53-.5,2.46-.5,4.92-.03,7.29-.49,2.61-.5,5.26-.04,7.78-.52,2.37-.45,4.75-.05,7.04-.47,2.69-.49,5.42-.06,8.03-.54,2.3-.42,4.54-.3,6.8-.38,1.37-.05,2.61-.75,4.04-.56,1.39,.18,2.92,.36,4.22-.03,2.28-.7,4.58-.05,6.8-.48,2.85-.54,5.75-.09,8.53-.55,2.46-.41,4.92,0,7.29-.47,2.53-.49,5.09-.05,7.53-.51,2.53-.47,5.09-.03,7.53-.5,2.54-.49,5.09-.02,7.53-.5,2.54-.5,5.09-.01,7.53-.5,2.46-.5,4.92-.03,7.29-.49,2.61-.5,5.26-.04,7.78-.52,2.46-.47,4.92-.02,7.29-.48,2.53-.49,5.09-.04,7.53-.51,2.62-.5,5.27,.02,7.78-.51,2.46-.52,4.88-.23,7.3-.41,0,4.64,.04,9.27-.02,13.91-.02,1.67-.38,3.34-.46,5.01-.08,1.73,.23,3.52-.07,5.2-.52,2.94-.82,5.91-1.45,8.82-.11,.52-.33,1.02-.49,1.53Z"/><path class="l" d="M168.41,464.72c.43-.17,.88-.51,1.29-.47,3.46,.31,6.84-.62,10.28-.54,3.52,.08,7-.84,10.53-.49,2.29-.91,4.73-.13,7.02-.56,2.69-.5,5.42-.06,8.03-.54,2.3-.42,4.54-.3,6.8-.38,1.37-.05,2.61-.74,4.04-.56,1.39,.18,2.92,.36,4.22-.03,2.2-.67,4.38-.23,6.56-.43,1.35-.13,2.69-.39,4.04-.47,1.41-.08,2.91,.27,4.23-.08,2.36-.64,4.75-.08,7.04-.49,2.69-.49,5.42-.06,8.03-.54,2.3-.42,4.54-.3,6.8-.38,1.37-.05,2.61-.75,4.04-.56,1.39,.18,2.92,.36,4.22-.03,2.28-.7,4.58-.06,6.8-.48,2.68-.5,5.41-.1,8.03-.55,2.46-.42,4.92-.01,7.29-.47,2.53-.49,5.09-.05,7.53-.51,2.53-.47,5.09-.03,7.53-.5,2.54-.49,5.09-.02,7.53-.5,2.54-.5,5.09-.01,7.53-.5,2.46-.5,4.92-.03,7.29-.49,2.78-.54,5.59-.03,8.28-.52,2.37-.43,4.74-.05,7.04-.47,2.69-.49,5.39-.16,8.03-.53,1.61-.22,3.19-.43,4.8-.39,.52,.01,1.03,.31,1.54,.48-1.7,2.12-3.45,4.2-5.09,6.36-1.55,2.05-3.47,3.86-4.84,5.98-1.54,2.37-3.81,4.09-5.21,6.53-.2,.35-.58,.59-.87,.89-4.99,5.15-9.98,10.3-14.96,15.47-.73,.76-1.52,1.39-2.51,1.75-1.16,0-2.35,.13-3.49-.04-1.2-.18-2.16,.51-3.29,.56-2.35,.09-4.67-.07-7.05,.38-2.6,.49-5.33,.04-8.02,.54-2.29,.43-4.68-.16-7.04,.49-1.39,.38-2.98,0-4.47,.09-1.52,.08-3.02,.34-4.54,.47-2.09,.18-4.17,.02-6.3,.4-2.69,.47-5.51,.06-8.27,.56-2.22,.41-4.51-.22-6.79,.47-1.29,.39-2.83,.21-4.22,.03-1.43-.19-2.67,.52-4.04,.56-2.26,.07-4.5-.05-6.8,.37-2.6,.48-5.33,.06-8.02,.54-2.29,.42-4.68-.14-7.04,.49-1.32,.36-2.82,0-4.22,.08-1.35,.08-2.69,.35-4.04,.47-2.17,.2-4.35-.24-6.55,.44-1.29,.4-2.82,.21-4.22,.03-1.43-.18-2.67,.51-4.04,.56-2.26,.09-4.52-.21-6.8,.41-1.47,.4-3.14,.14-4.72,.06-1.63-.08-3.13,.8-4.79,.53-2.46-.4-4.84,.49-7.28,.51-.63,0-.32,.62-.39,.98-1.39-.45-1.88-1.83-2.43-2.85-2.01-3.78-4.49-7.29-6.5-11.04-1.77-3.31-3.75-6.58-4.57-10.34-1.11-1.2-1.14-2.86-1.75-4.27-.58-1.35-.49-2.89-1.2-4.25-.31-.59-.05-1.47-.05-2.22Z"/><path class="i" d="M184.91,499.7c.07-.36-.24-.97,.39-.98,2.44-.02,4.82-.91,7.28-.51,1.65,.27,3.15-.61,4.79-.53,1.58,.08,3.25,.34,4.72-.06,2.28-.62,4.54-.32,6.8-.41,1.37-.05,2.61-.74,4.04-.56,1.39,.18,2.92,.36,4.22-.03,2.2-.67,4.38-.23,6.55-.44,1.35-.13,2.69-.39,4.04-.47,1.41-.08,2.91,.27,4.22-.08,2.36-.64,4.74-.08,7.04-.49,2.69-.49,5.42-.06,8.02-.54,2.3-.43,4.54-.3,6.8-.37,1.37-.04,2.61-.75,4.04-.56,1.39,.18,2.92,.36,4.22-.03,2.28-.69,4.58-.07,6.79-.47,2.76-.51,5.58-.09,8.27-.56,2.13-.37,4.21-.21,6.3-.4,1.51-.13,3.02-.39,4.54-.47,1.49-.08,3.08,.29,4.47-.09,2.36-.65,4.75-.06,7.04-.49,2.69-.5,5.42-.06,8.02-.54,2.38-.45,4.7-.29,7.05-.38,1.13-.04,2.09-.74,3.29-.56,1.14,.17,2.32,.04,3.49,.04-1.45,1.75-3.09,3.27-4.85,4.74-1.86,1.55-3.78,3.07-5.55,4.76-2.57,2.45-5.63,4.37-8.51,6.48-1.33,.97-2.71,1.88-4.1,2.77-1.97,1.27-3.92,2.57-5.96,3.71-3.03,1.71-6.05,3.47-9.21,4.9-4.27,1.94-8.59,3.8-13.11,5.14-3.21,.95-6.44,1.76-9.7,2.52-1.94,.45-3.88,.69-5.83,1.02-5.01,.84-10.03,.22-15.04,.42-1.44,.06-2.86,.07-4.31-.42-1.33-.45-2.84,.16-4.3-.49-1.03-.46-2.42,.24-3.51-.57-3.02-.09-5.84-1.16-8.64-2.07-3.64-1.19-7.28-2.5-10.66-4.41-3.13-1.77-6.28-3.47-9.15-5.67-1.86-1.42-3.59-2.98-5.42-4.4-3.15-2.45-5.66-5.51-8.58-8.18-.04-.04,0-.16,0-.24Z"/><path class="p" d="M475.59,812.01c-1.08,0-2.17-.09-3.25,.02-3.29,.32-6.57-.17-9.77-.64-3.06-.44-6.28-.52-9.18-1.88-1.83,.37-3.33-.87-5.07-1.07-1.58-.17-3.17-.77-4.61-1.47-1.53-.75-3.37-.74-4.69-1.96-1.68,.16-2.77-1.29-4.36-1.59-1.46-.27-2.83-1.19-4.16-1.97-4.44-2.59-8.95-5.12-13.09-8.17-2.57-1.89-5.4-3.49-7.59-5.91-.45-.5-1.24-.88-2.12-.89-.75-.01-.27-.79-.41-1.2,.28-.05,.61-.22,.84-.14,3.13,1.09,6.18,2.49,9.38,3.24,2.05,.48,3.96,1.39,6.08,1.69,2.07,.3,4.09,.95,6.12,1.5,2.63,.71,5.32,1.15,7.96,1.84,1.17,.31,2.5,.42,3.76,.6,2.77,.39,5.5,1.12,8.33,1,1.17,.85,2.56,.23,3.78,.53,2.26,.57,4.6,.1,6.78,.55,3.12,.64,6.21,.29,9.3,.39,3.08,.1,6.19,.29,9.23-.06,2.52-.29,5.03-.33,7.55-.46,.92-.05,1.81-.48,2.79-.5,.93-.01,1.85,.24,2.85-.37,.73-.44,2,.12,2.93-.15,1.02-.29,2.01-.5,3.06-.44,1.13,.06,2.09-.69,3.3-.56,.98,.1,2.1-.24,3-.53,2.03-.66,4.14-.81,6.17-1.33,1.58-.41,3.23-.74,4.78-1.18,1.55-.44,3.15-.87,4.69-1.26,2.34-.58,4.6-1.4,6.91-2.05,2.3-.66,4.66-1.21,6.87-2.12,3.35-1.37,6.75-2.6,10.1-3.96,.71-.29,1.37-.74,2.1-.94,.39-.11,.91,.13,1.33,.3,.24,.1,.57,.37,.13,.69-.19,.14-.35,.38-.57,.44-2.11,.6-3.54,2.11-5,3.61-1.63,1.67-3.28,3.31-4.94,4.95-2.8,2.75-5.91,5.03-9.33,7-2.82,1.64-5.58,3.42-8.53,4.78-2.93,1.35-5.86,2.7-8.94,3.75-1.95,.67-3.88,1.54-5.87,2.08-1.72,.47-3.41,1.05-5.19,1.39-2.79,.54-5.53,1.32-8.39,1.43-1.34,.95-2.9,.16-4.28,.53-3.58,.95-7.2,.17-10.79,.47Z"/><path class="p" d="M108.6,533.53c1.82-.11,2.62,.97,3.37,2.36,1.23,2.28,2.42,4.55,2.47,7.22,.82,1.26,.37,2.69,.51,4.04,.12,1.18,.32,2.36,.49,3.54,.16,1.1-.41,2.3,.49,3.3,.08,.09,0,.32,.01,.49,.16,2.59,.3,5.19,.51,7.78,.09,1.1,.35,2.19,.48,3.29,.11,1.02-.24,2.11,.49,3.05,.12,.16,0,.49,.02,.74,.16,2.34,.35,4.69,.49,7.03,.05,.8,.61,1.42,.56,2.29-.04,.85-.28,1.72,.24,2.63,.36,.63,0,1.64,.24,2.39,.64,1.99,.65,4.06,.98,6.09,.1,.61,.36,1.19,.48,1.79,.12,.61-.08,1.22,.42,1.85,.33,.41,.02,1.28,.11,1.93,.08,.61,.35,1.19,.48,1.79,.35,1.69,.44,3.48,1.07,5.05,.62,1.53,.89,3.14,1.31,4.69,.69,2.54,1.38,5.09,2.14,7.62,.75,2.51,1.49,5.04,2.52,7.44,1.21,2.83,2.11,5.78,3.41,8.58,1.36,2.92,2.36,6.01,3.55,9.01,.54,1.36,1.16,2.69,1.74,4.02,1.29,2.97,2.3,6.04,3.49,9.04,.06,.14,.26,.27,.25,.39-.06,.71-.16,1.42-.25,2.13-.9,.04-1.45-.73-1.67-1.27-.46-1.16-1.39-1.93-2.08-2.86-.94-1.28-1.64-2.67-2.48-3.99-1.95-3.09-3.86-6.22-5.74-9.36-.88-1.46-1.66-2.97-2.48-4.46-2.08-3.79-4.15-7.59-6.02-11.49-.6-1.26-1.56-2.35-2.07-3.64-1.42-3.59-3.38-6.92-4.94-10.44-1.19-2.67-2.48-5.31-3.52-8.03-1.45-3.81-2.92-7.62-4.31-11.45-1.24-3.41-2.44-6.82-3.5-10.28-1.03-3.33-2.17-6.62-2.93-10.02-.66-2.93-1.57-5.81-1.49-8.87-.79-1.62-.18-3.41-.58-5.02-.32-1.29-.39-2.53-.42-3.81-.06-2.73,.87-5.26,1.65-7.81,.27-.87,.78-1.74,1.4-2.4,2.01-2.11,3.94-4.35,6.63-5.65,.76-.37,1.64-.49,2.46-.73Z"/><path class="p" d="M746.9,304.82c2.42,0,4.5,.35,6.4-.08,2.95-.67,5.88-.23,8.8-.41,1.47-.09,2.75,.57,3.97,1.24,2.11,1.16,4.09,2.56,6.23,3.66,3.17,1.64,6.26,3.43,9.27,5.34,4.69,3,9.29,6.13,13.91,9.24,2.16,1.46,4.29,2.95,6.37,4.52,3.12,2.36,6.2,4.77,9.23,7.24,1.32,1.07,2.58,2.24,3.83,3.38,4.86,4.48,9.57,9.12,14.3,13.74,.74,.72,1.32,1.61,1.95,2.43,.64,.82,1.6,1.32,2.01,2.42,.23,.63,.48,.72-.34,.75-1.41,.04-2.44-.94-3.72-1.29-1.32-.36-2.64-.97-3.74-1.76-1.16-.83-2.64-.92-3.74-1.91-.64-.58-1.69-.69-2.54-1.05-1.42-.59-2.89-1.05-4.21-1.91-1.22-.79-2.55-1.49-3.93-1.94-3.79-1.22-6.88-3.82-10.6-5.17-1.44-.52-2.85-1.21-4.17-1.99-3.2-1.89-6.62-3.34-9.87-5.1-1.84-1-3.94-1.47-5.56-2.87-2.12-.22-3.72-1.99-5.91-2.01-1.87-1.32-4.05-1.88-6.21-2.49-.15-.04-.37-.07-.42-.17-.65-1.29-2.19-1.23-3.17-2.07-.92-.78-2.14-1.21-3.25-1.76-2.84-1.38-5.69-2.74-8.53-4.11-2.84-1.38-5.67-2.78-8.56-4.05-4.23-1.86-8.42-3.79-12.57-5.83-.55-.27-1.16-.5-1.61-.9-.53-.47-1.37-1.19-1.28-1.64,.14-.67,1.24-.68,1.87-1.01,1.29-.69,2.65-.89,4.02-1.17,1.39-.28,2.82-.51,4.15-.86,2.71-.71,5.39-.14,7.64-.41Z"/><path class="p" d="M840.57,553.92c.12,3.25-.52,6.14-.61,9.08-.08,2.43-1.18,4.81-1.7,7.24-.44,2.05-1.18,4.02-1.69,6.05-.34,1.36-.38,2.9-1.09,4.02-.56,.89-.07,1.87-.85,2.7-.56,.6-.56,1.74-.8,2.63-.25,.89-.47,1.8-.76,2.68-.29,.87-.65,1.73-.99,2.58-.65,1.65-1.32,3.28-1.94,4.94-1.03,2.74-2,5.49-3.07,8.22-.53,1.36-1.2,2.66-1.73,4.03-.8,2.08-1.79,4.09-2.76,6.1-2.98,6.17-5.84,12.42-9.06,18.46-1.56,2.93-2.95,5.98-4.87,8.74-1.26,1.82-1.96,4.02-3.08,5.94-1.18,2.03-2.55,3.94-3.85,5.9-.87,1.31-1.82,2.57-2.59,3.92-.4,.71-.69,.49-1.08,.14-.75-.67-.52-1.41-.2-2.21,.52-1.28,.91-2.62,1.44-3.9,.73-1.78,1.56-3.52,2.31-5.28,1.18-2.76,2.35-5.52,3.5-8.29,1.85-4.49,3.47-9.06,5-13.66,.49-1.47,.93-2.95,1.35-4.43,.44-1.57,.64-3.24,1.3-4.71,.65-1.44,.39-3.12,1.36-4.43-.12-1.94,.89-3.66,1.09-5.57,.15-1.43,.47-2.92,.92-4.34,.42-1.34,.43-2.75,.92-4.11,.38-1.07,.22-2.33,.5-3.53,.43-1.87,.37-3.84,.58-5.77,.11-1.02,.64-1.94,.52-3.04-.1-.93-.29-1.96,.45-2.8,.08-.09,0-.32,.01-.49,.16-2.51,.12-5.06,.57-7.52,.35-1.94,.11-3.92,.52-5.78,.38-1.71,.29-3.37,.43-5.05,.08-1.02,.38-2.02,.47-3.04,.08-.99-.26-2.1,.08-2.97,.65-1.69,.33-3.38,.44-5.06,.07-1.11,.39-2.22,.63-3.26,.22-.95,.35-1.87,.36-2.82,.02-1.77,.61-3.37,1.16-5.01,.52-1.56,1.27-2.87,2.49-3.98,.47-.43,.93-.5,1.51-.6,2.2-.37,3.96,.6,5.44,1.94,1.81,1.64,3.71,3.25,4.97,5.41,1.03,1.76,1.81,3.64,1.9,5.69,.04,.97,.3,1.87,.49,2.8,.18,.88,.04,1.82,.04,2.43Z"/><path class="p" d="M171.91,396.26c-.54,2.37-.56,4.84-1.4,7.16-.32,.88,.22,1.96-.6,2.75,.09,2.34-.93,4.5-1.09,6.82-.07,1.06-.11,2.29-.48,3.26-.41,1.05-.11,2.14-.47,3.05-.82,2.1-.85,4.43-1.94,6.44-.07,.13,0,.33,0,.49-1.05,.82-.57,2.35-1.48,3.23,.19,1.49-.69,2.71-1.03,4.07-.73,2.93-1.59,5.84-2.56,8.68-1.05,3.07-1.45,6.34-2.92,9.27,.06,2.25-1.22,4.18-1.55,6.36-.32,2.14-.99,4.25-1.54,6.35-.24,.92-.24,1.97-.84,2.9-.47,.73-.4,1.82-.56,2.75-.17,1.01-.02,2.27-.58,2.97-.68,.86,.1,2.05-.92,2.64,.11,1.06-.17,2.04-.47,3.05-.31,1.05-.07,2.36-.6,3.24-.71,1.18-.2,2.48-.85,3.66-.54,.98-.24,2.37-.61,3.48-.6,1.78-.71,3.67-1.34,5.43-.34,.96-.05,2-.55,3.02-.5,1.02-.06,2.56-.66,3.44-.72,1.04,.22,2.37-.91,3.14,.05,2.82-1.16,5.32-1.99,7.91-.12,.36,.07,.94-.56,.81-.35-.08-.88-.45-.9-.72-.05-.81-.35-1.54-.49-2.3-.27-1.47-.94-2.86-1.02-4.32-.15-2.82-.4-5.71,.05-8.47,.55-3.45-.04-6.91,.49-10.28,.57-3.61-.03-7.24,.52-10.77,.45-2.87-.02-5.75,.49-8.53,.47-2.54,.06-5.07,.49-7.53,.34-1.95,.15-3.91,.51-5.78,.25-1.28,.14-2.59,.48-3.79,.36-1.28,.24-2.56,.48-3.8,.43-2.27,.71-4.54,1.03-6.82,.16-1.18,.21-2.41,.51-3.52,.28-1.02,.41-2.1,.83-3.14,.52-1.28,.46-2.82,.56-4.25,.05-.66,.38-1.23,.46-1.8,.34-2.5,1.46-4.8,1.62-7.36,.09-1.43,.73-2.84,1.2-4.23,.27-.81,.5-1.7,.83-2.4,.63-1.33,1.05-2.73,1.65-4.06,.57-1.27,1.36-2.44,2.09-3.63,1.03-1.66,2.29-3.2,3.12-4.95,1.3-2.76,3.67-3.97,6.29-4.96,.29-.11,.56-.26,.85-.35,1.15-.33,2.23-.77,3.43,.07,.86,.6,1.96,.86,2.96,1.27Z"/><path class="p" d="M769.61,432.24c-.17-.68-.39-1.35-.48-2.04-.08-.65,.04-1.33-.03-1.99-.11-1.02-.34-2.02-.48-3.03-.12-.94-.08-1.84-.41-2.81-.42-1.22-.15-2.65-.54-4.01-.42-1.44-.26-3.03-.59-4.5-.3-1.36-.69-2.75-.87-4.09-.27-2.12-1.1-4.14-1.1-6.3-.94-1.3-.04-3.03-1.01-4.31-.12-.16-.33-.27-.49-.4v-1c1.08,0,2.17-.07,3.25,.01,2.99,.22,5.69,1.17,7.85,3.34,.65,.65,1.29,1.31,1.95,1.94,.87,.84,1.4,1.88,2.02,2.9,1.02,1.67,1.74,3.45,2.56,5.2,.89,1.88,1.8,3.75,2.63,5.65,.25,.56,.22,1.24,.38,1.84,.41,1.49,.78,2.99,1.31,4.45,.5,1.38,.69,2.88,1.04,4.32,.18,.75,.42,1.49,.64,2.23,.11,.37,.35,.74,.33,1.1-.14,2.28,.89,4.31,1.26,6.48,.07,.38,.25,.76,.25,1.14,0,1.77,.43,3.42,.94,5.11,.41,1.36,.38,2.84,.58,4.26,.14,1.02,.35,2.02,.49,3.04,.13,.94,.04,1.84,.41,2.82,.43,1.13,.17,2.48,.52,3.77,.46,1.68,.2,3.56,.62,5.26,.52,2.1,0,4.31,.57,6.27,.52,1.8,.2,3.6,.76,5.4,.55,1.74-.15,3.84,.17,5.7,.89,5.09,.3,10.2,.42,15.29,.12,5.08,.02,10.16,.03,15.24,0,1.22-.32,2.32-.93,3.36-.18,.3,0,.94-.62,.78-.35-.09-.89-.46-.9-.72-.06-1.22-.91-2.2-1-3.33-.14-1.83-.81-3.54-1.16-5.3-.32-1.62-.81-3.31-1.26-4.93-.5-1.78-.62-3.72-1.14-5.54-.97-3.45-1.06-7.11-2.48-10.46-.24-4.03-1.61-7.83-2.62-11.67-.84-3.2-1.51-6.47-2.68-9.61-.81-2.17-1.09-4.54-1.71-6.79-.39-1.41-1.07-2.73-1.46-4.14-.6-2.16-1.13-4.33-2-6.42-.62-1.49-.98-3.09-1.54-4.61-.55-1.52-1.27-2.98-1.81-4.5-.47-1.31-.78-2.67-1.19-4-.05-.17-.32-.27-.48-.4Z"/><path class="p" d="M567.66,785.5c-.2-.06-.95-.28-1.71-.47-.38-.1-.78-.13-1.17-.19,.27-.51,.59-.85,1.27-.85,.43,0,.87-.28,1.29-.47,1.74-.82,3.41-1.86,5.23-2.44,1.85-.59,3.6-1.42,5.35-2.17,2.33-1,4.67-1.97,7.04-2.91,2.07-.82,4.07-1.83,6.16-2.61,2.09-.78,4.22-1.55,6.22-2.46,3.44-1.56,7.09-2.56,10.49-4.23,1.99-.98,4.16-1.6,6.28-2.32,2.11-.72,4.2-1.57,6.23-2.44,3.47-1.48,6.99-2.88,10.5-4.17,3.83-1.41,7.56-3.08,11.45-4.33,2.68-.86,5.28-2.1,7.92-3.17,2.99-1.22,6.01-2.36,9.02-3.54,3.87-1.51,7.73-3.05,11.61-4.5,3.82-1.43,7.68-2.8,11.46-4.29,4.24-1.67,8.52-3.15,12.83-4.58,2.2-.73,4.54-1.09,6.73-1.84,1.36-.46,2.69-.44,4.05-.45,.39,0,1.08,.06,1.11,.2,.11,.53,.03,1.11-.03,1.66-.01,.13-.22,.24-.34,.35-2.68,2.7-5.46,5.22-8.68,7.34-4.24,2.79-8.76,4.97-13.32,7.07-3.2,1.48-6.51,2.75-9.88,3.88-2.48,.83-4.86,1.93-7.29,2.88-2.3,.89-4.61,1.73-6.92,2.59-2.45,.91-4.91,1.81-7.37,2.71-1.66,.61-3.33,1.22-5,1.79-2.63,.89-5.27,1.74-7.9,2.63-2.55,.87-5.1,1.76-7.64,2.64-2.04,.71-4.06,1.48-6.12,2.1-2.07,.63-4.08,1.59-6.14,2.01-2.62,.53-5.01,1.66-7.58,2.27-3.91,.94-7.65,2.47-11.58,3.41-2.24,.53-4.47,1.24-6.66,1.99-2.13,.73-4.33,1.15-6.46,1.87-2.41,.81-4.93,1.34-7.39,2.06-1.86,.55-3.73,1.08-5.62,1.49-1.9,.41-3.81,.78-5.63,1.48-.36,.14-.82,.02-1.82,.02Z"/><path class="p" d="M373.85,779.53c-.77-.12-2.13-.07-3.26-.56-1.27-.55-2.61-.46-3.87-.92-1.16-.42-2.37-.75-3.58-1.01-3.43-.71-6.89-1.33-10.2-2.51-2.06,.33-3.77-1.37-5.83-1-2.12-1.19-4.56-1.44-6.82-2.22-2.55-.88-5.14-1.72-7.8-2.3-.89-.2-1.71-.72-2.59-.96-3.8-1.04-7.56-2.22-11.32-3.4-2.13-.67-4.26-1.47-6.43-1.97-2.21-.51-4.26-1.47-6.43-1.97-3.26-.74-6.3-2.14-9.5-3-4.34-1.17-8.52-2.74-12.78-4.12-1.61-.52-3.18-1.19-4.81-1.69-1.49-.46-3.24-.61-4.48-1.83-4.81-1.19-9.28-3.34-13.88-5.1-5.24-2.01-10.47-4.12-15.35-6.95-1.49-.87-2.85-1.98-4.27-2.96-1.23-.85-2.39-1.84-3.72-2.47-1.67-.79-2.57-2.28-3.71-3.54-.31-.34-.26-1.05-.29-1.6,0-.12,.32-.4,.47-.38,1.03,.12,2.14-.37,3.1,.33,.06,.05,.13,.15,.19,.14,2.98-.34,5.43,1.36,8.09,2.19,4.27,1.32,8.47,2.86,12.7,4.32,4.15,1.43,8.29,2.92,12.46,4.29,6.67,2.18,13.24,4.64,19.94,6.77,3.43,1.09,6.84,2.35,10.17,3.78,1.62,.69,3.27,1.49,4.94,1.91,2.73,.69,5.16,2.06,7.86,2.8,2.43,.67,4.71,1.9,7.1,2.74,1.46,.51,2.86,1.15,4.29,1.7,1.51,.58,3.05,1.07,4.54,1.7,1.42,.59,3.03,.73,4.27,1.75,4.43,1.1,8.51,3.18,12.82,4.64,2.67,.91,5.33,1.99,7.95,3.11,1.77,.75,3.63,1.28,5.43,1.97,2.23,.85,4.41,1.84,6.66,2.62,3.17,1.1,6.04,2.76,8.91,4.43,.4,.24,.81,.46,1.2,.71,.12,.08,.18,.23,.27,.35-.14,.07-.27,.19-.41,.2-.5,.02-1,0-2,0Z"/><path class="p" d="M126.43,412.52c-.34,1.57-.27,3.65-.97,5.63-.21,.59,.03,1.33-.05,1.98-.07,.53-.45,1.03-.45,1.54-.02,1.61-.77,3.07-.94,4.59-.19,1.7-1.36,2.63-2.1,3.89-1.11,1.88-2.21,3.78-3.51,5.52-1.38,1.84-2.65,3.77-4.09,5.59-1.94,2.45-4.72,4.2-5.95,7.23-.2,.5-.79,.84-1.21,1.25-5.41,5.41-10.69,10.96-16.29,16.18-3.07,2.86-6.04,5.82-9.11,8.68-1.27,1.18-2.76,2.14-4.16,3.19-.66,.5-1.59,.27-1.62-.46-.04-.87,.06-1.77,.24-2.63,.7-3.35,2.15-6.42,3.72-9.44,1.32-2.53,2.53-5.11,3.85-7.64,1.51-2.89,3.27-5.64,4.89-8.46,3.43-5.98,7.38-11.61,11.26-17.29,1.25-1.83,2.53-3.63,3.89-5.4,1.4-1.81,3.01-3.47,4.12-5.51,.15-.28,.47-.46,.69-.71,2.47-2.8,5.21-5.42,7.32-8.47,1.41-2.04,3.47-2.97,5.19-4.45,1.28-1.11,2.27-.83,3.55,.44,1.71,1.69,1.72,1.72,1.72,4.73Z"/><path class="p" d="M145.43,645.76c0-.25-.05-.51,0-.75,.42-1.84,1.87-2.47,3.31-1.28,1.46,1.22,2.87,2.57,4.02,4.08,.48,.62,1,1.23,1.48,1.86,.43,.57,.81,1.17,1.24,1.73,2.41,3.09,4.8,6.19,7.25,9.24,1.72,2.14,3.56,4.17,5.28,6.31,1.59,1.98,3.04,4.07,4.61,6.07,1.49,1.9,3.05,3.73,4.58,5.6,2.3,2.8,4.64,5.55,6.87,8.4,1.54,1.97,3.19,3.84,4.74,5.79,1.93,2.45,4.11,4.7,5.91,7.26,1.21,1.72,2.74,3.23,4.21,4.75,2.61,2.69,5.26,5.34,7.94,7.95,4.5,4.38,8.88,8.9,13.62,13.01,3.44,2.99,6.49,6.34,9.81,9.42,.37,.34,.89,.65,1.02,1.07,.15,.5-.04,1.1-.09,1.66-.45-.05-.98,.03-1.34-.19-1.87-1.13-3.74-2.27-5.54-3.52-4.02-2.79-8.04-5.58-11.97-8.49-2.7-2-5.22-4.27-7.88-6.32-2.87-2.21-5.67-4.49-8.42-6.85-2.96-2.55-5.82-5.22-8.77-7.77-6.46-5.6-12.2-11.93-18.27-17.91-2.95-2.91-5.65-6.1-8.31-9.29-2.3-2.75-4.4-5.66-6.55-8.52-.65-.87-1.07-1.89-1.71-2.8-1.1-1.57-1.84-3.38-2.71-5.1-.87-1.72-1.2-3.67-2.3-5.29,.2-1.8-1.31-3.25-1.04-5.06-.9-1.22-.03-2.87-.98-4.1-.16-.21-.02-.65-.02-.98Z"/><path class="p" d="M850.65,533.35c-.1,1-.19,1.88-.28,2.77-1.1,.12-1.54-.96-2.37-1.37-.81-.4-2.03-.71-2.13-2.01-1.06-.22-1.5-.98-1.95-1.89-.46-.91-1.45-1.43-1.98-2.42-.58-1.09-1.61-2-2.45-2.97-2.15-2.49-4.15-5.09-6.15-7.7-1.62-2.11-3.5-4.02-5.08-6.15-2.03-2.75-4.31-5.3-6.28-8.1-1.23-1.75-2.71-3.37-3.98-5.11-2.09-2.85-4.36-5.54-5.99-8.75-1.3-2.55-2.47-5.13-3.58-7.76-.65-1.56-1.54-3.01-2.1-4.62-.61-1.74-.6-3.32,.21-5.04,.81-1.73,1.63-3.38,3.02-4.75,1.61-1.6,4.1-1.44,5.6-.9,2.4,.86,3.88,2.79,5.41,4.66,1.26,1.53,2.45,3.11,3.55,4.77,1.6,2.43,3.35,4.76,4.93,7.2,1.48,2.28,2.7,4.74,4.26,6.96,3,4.28,5.46,8.87,7.48,13.64,1.62,3.82,3.34,7.61,4.95,11.43,1.19,2.83,2.12,5.79,2.87,8.81,.51,2.02,1.02,4.07,1.67,6.05,.39,1.17-.04,2.28,.36,3.28Z"/><path class="o" d="M129.43,472.33c-.26,5.65-1.97,10.72-5.52,15.21-1.75,2.22-3.31,4.62-4.93,6.95-1.53,2.2-3.2,4.3-4.68,6.54-1.1,1.66-2.62,3.06-3.63,4.76-.98,1.63-2.2,3.09-3.31,4.59-1.67,2.23-3.34,4.47-5.03,6.69-1.34,1.76-2.77,3.45-3.93,5.36-.62,1.01-1.53,1.87-2.31,2.77-1.74,2.02-3.45,4.05-5.09,6.15-.42,.54-1.09,.94-1.72,1.23-.83,.39-1.88,1.17-2.63,.4-.5-.52-.26-1.59,.16-2.49,.5-1.05-.16-2.41,.64-3.48,.14-3.73,1.39-7.2,2.51-10.7,.45-1.39,1.2-2.66,1.73-4.03,.9-2.37,2.34-4.53,3.22-6.91,1.13-3.05,2.73-5.87,4.06-8.81,1.27-2.81,2.76-5.52,3.95-8.36,1.08-2.56,2.32-5.04,3.55-7.52,.55-1.11,1.19-2.22,1.98-3.16,.77-.92,.89-2.3,2.21-2.85,.39-.16,.51-.91,.79-1.37,2.07-3.45,4.85-6.11,8.51-7.84,1.58-.75,3.29-1,4.93-.66,1.08,.22,2.4,.86,2.95,1.73,.66,1.06,1.85,2.02,1.62,3.57-.11,.73-.02,1.5-.02,2.25Z"/><path class="p" d="M793.09,647.94c-.36,2.82-.61,5.62-1.38,8.41-.67,2.41-1.43,4.72-2.55,6.95-1.11,2.21-2.18,4.43-3.46,6.57-1.71,2.87-3.65,5.51-5.71,8.12-2.4,3.04-4.84,6.03-7.37,8.96-1.34,1.54-2.81,2.95-4.12,4.52-5.27,6.31-11.45,11.73-17.16,17.61-1.94,1.99-3.99,3.9-6.16,5.64-2.27,1.83-4.38,3.84-6.66,5.64-2.25,1.78-4.33,3.77-6.74,5.38-2.06,1.38-3.83,3.19-5.81,4.71-2.7,2.08-5.45,4.1-8.21,6.1-1.4,1.02-2.85,1.95-4.29,2.92-.98,.66-1.9,1.46-2.96,1.89-.78,.31-1.76,.13-2.65,.15-.02,0-.08-.22-.07-.34,0-.06,.11-.12,.17-.18,1.53-1.7,2.85-3.69,4.65-5.02,2.36-1.75,4.01-4.27,6.59-5.74,.42-.24,.72-.69,1.07-1.04,3.42-3.41,6.86-6.8,10.24-10.25,3.69-3.78,7.39-7.55,10.93-11.47,2.28-2.52,4.44-5.17,6.71-7.72,2.62-2.95,5.13-6.01,7.58-9.1,2.61-3.3,5.15-6.67,7.72-9.99,2.44-3.16,4.9-6.32,7.28-9.52,2.54-3.42,5.09-6.84,7.57-10.3,2.08-2.9,4.12-5.86,6.4-8.63,1.96-2.38,3.82-4.83,6.05-6.97,.38-.37,.66-.96,1.4-.36,.47,.38,1.2,.4,.98,1.34-.13,.55-.02,1.16-.02,1.74Z"/><path class="p" d="M810.42,409.27c1.29,.43,2.49,.75,3.63,1.23,1.16,.49,2.26,1.1,3.15,2.08,1.4,1.54,2.91,2.98,4.4,4.43,3.98,3.9,7.3,8.34,10.4,12.93,2.84,4.21,5.58,8.5,8.31,12.79,2.94,4.61,6.1,9.08,8.88,13.8,2.14,3.65,4.68,7.06,7.01,10.6,.38,.57,.64,1.24,.84,1.89,.41,1.33,.51,2.82,1.17,4,.78,1.38,.9,2.97,1.71,4.3,.29,.48,.03,.73-.26,1.04-.32,.32-.6,.55-1.04,.18-.17-.15-.4-.3-.61-.32-2.54-.21-4.1-2.03-5.38-3.8-1.57-2.17-3.53-3.88-5.45-5.64-.57-.53-.93-1.17-1.45-1.7-7.82-7.89-15.58-15.85-23.35-23.78-.76-.77-1.5-1.57-2.3-2.29-2.89-2.6-5.27-5.53-6.76-9.2-.75-1.84-2-3.47-2.84-5.32-.4-.87-.8-1.64-.96-2.61-.14-.84-.35-1.68-.5-2.54-.23-1.35-.39-2.68-.49-4.05-.18-2.31,.55-4.39,1.25-6.5,.12-.37,.17-.76,.31-1.12,.07-.18,.26-.32,.33-.41Z"/><path class="p" d="M147.98,352.43c-.19,2.26-.28,4.53-.59,6.77-.18,1.31-.99,2.42-1.68,3.54-1.75,2.85-3.49,5.72-5.29,8.54-1.11,1.74-2.12,3.53-3.69,4.98-4.18,3.87-8.18,7.93-12.39,11.76-1.19,1.08-2.45,2.11-3.65,3.21-1.19,1.1-2.39,2.19-3.68,3.17-2.68,2.04-5.24,4.23-7.85,6.36-2.22,1.82-4.47,3.62-6.81,5.27-1.18,.83-2.6,1.34-3.93,1.95-.17,.08-.5-.08-.69-.22-.53-.41-1.17-1.01-.75-1.64,.76-1.14,.8-2.48,1.39-3.68,1.03-2.08,2.03-4.17,3.27-6.13,2.81-4.43,5.48-8.94,8.56-13.21,2.49-3.45,5.12-6.81,7.53-10.33,1.49-2.18,3.42-4.07,5.07-6.15,1.96-2.48,4.14-4.78,6.13-7.21,3.42-4.18,7.46-7.72,11.22-11.53,1.28-1.3,2.83-2.52,4.78-2.87,.47-.08,.94-.22,1.4-.21,.2,0,.51,.31,.57,.54,.58,2.32,1.26,4.63,1.07,7.08Z"/><path class="p" d="M789.04,347.79c1.25-.33,2.29,.28,3.23,1.37,.61,.71,1.48,1.2,2.24,1.79,.69,.53,1.79,.95,1.98,1.62,.25,.85,1.49,.69,1.31,1.67,1.47,1.47,2.97,2.92,4.41,4.42,2.79,2.91,5.55,5.85,8.3,8.81,.54,.58,1.2,1.21,1.36,1.92,.24,1.04,1.41,.89,1.73,1.75,.26,.72,.67,1.41,1.15,2.01,.57,.71,1.44,1.22,1.89,1.98,1.02,1.7,2.95,2.75,3.43,4.82,1.71,1.2,2.24,3.3,3.65,4.74,.96,.98,2.15,1.95,2.58,3.17,.72,2,2.5,3.09,3.43,4.83,1.81,3.41,4.37,6.42,5.37,10.27,.3,1.16,1.12,2.19,1.7,3.28,.18,.34,.45,.67,.51,1.03,.11,.6,.08,1.23,.11,1.85-.62-.04-1.27,.04-1.85-.14-2.34-.76-4.26-2.27-6.22-3.68-1.02-.73-2.1-1.38-3.11-2.13-.97-.72-1.76-1.81-2.83-2.21-1.29-.48-1.68-2.03-3.09-2.21-.86-1.47-2.43-2.1-3.65-3.14-1.3-1.11-2.48-2.38-3.88-3.32-1.8-1.2-3.06-2.97-4.74-4.25-3.11-2.36-5.6-5.35-8.44-7.97-.58-.53-1.37-.86-1.89-1.44-3.27-3.7-6.67-7.3-8.85-11.82-1.38-2.86-2.58-5.76-2.32-9.04,.04-.53,.22-1.14-.32-1.62-.14-.12-.22-.49-.15-.66,.93-2.22,.35-4.53,.46-6.8,.04-.79,.29-1.01,1.01-.92,.41,.05,.83,0,1.46,0Z"/><path class="p" d="M188.91,351.86c.02,3.87-1.18,6.33-2.9,8.51-1.57,1.98-3.32,3.83-5.11,5.63-1.61,1.62-3.28,3.21-5.13,4.54-.62,.44-.81,1.05-1.33,1.46-1,.81-1.97,1.67-2.98,2.46-.95,.75-1.45,2.02-2.78,2.33-.21,.05-.35,.34-.54,.5-1.7,1.53-3.35,3.11-5.1,4.58-3.25,2.73-6.41,5.55-9.5,8.45-2.69,2.53-5.68,4.74-8.53,7.1-.58,.48-1.49,.14-1.57-.64-.07-.74-.23-1.58,.03-2.23,.55-1.36,.9-2.78,1.48-4.13,.61-1.42,1.2-2.94,2.07-4.11,.88-1.18,1.15-2.59,1.96-3.65,.92-1.2,1.55-2.56,2.45-3.77,2.68-3.63,5.54-7.12,8.05-10.88,1.29-1.93,2.92-3.62,4.38-5.44,1.2-1.5,2.61-2.89,3.45-4.57,.6-1.19,2.04-1.67,2.2-3.08,2.27-3.09,6.6-7.08,10-8.94,1.13-.62,2.47-.88,3.75-1.18,1.31-.3,2.41,.17,3.2,1.29,1.43,2.02,2.36,4.22,2.44,5.76Z"/><path class="p" d="M752.11,368.78c-1.35-2.26-2.71-4.51-4.03-6.79-.66-1.14-1.66-2.06-2-3.4-.08-.33-.63-.53-.96-.8v-2c-.15-2.04,.32-3.88,1.37-5.67,1.56-2.64,2.21-2.69,5.14-2.03,1.54,.35,5.19,2.66,6.2,3.67,2.94,2.93,5.9,5.86,8.81,8.83,.78,.8,1.39,1.76,2.14,2.6,.74,.84,1.52,1.63,2.16,2.59,.75,1.12,1.79,2.05,2.63,3.15,2.85,3.7,5.74,7.38,8.19,11.35,1.34,2.16,2.65,4.37,3.92,6.58,1.77,3.09,3.23,6.32,4.92,9.45,.15,.27,.47,.53,.47,.79,0,.72-.13,1.43-.21,2.15-.32-.84-1.16-.32-1.72-.65-1.55-.92-3.1-1.78-4.53-2.96-2.85-2.35-5.47-4.98-8.49-7.14-1.51-1.08-2.83-2.43-4.22-3.68-1.7-1.52-3.35-3.1-5.1-4.57-2.76-2.33-5.59-4.58-8.36-6.89-1.37-1.14-2.68-2.36-4.04-3.51-.66-.56-1.36-1.08-2.3-1.06Z"/><path class="d" d="M423.28,310.81c-.13,.17-.25,.47-.4,.48-.75,.05-1.49,.02-2.24,.02h-87.79c-1.58,0-3.17-.13-4.74,.03-1.66,.17-3.16-.69-4.78-.53,.09-.84,.74-.48,1.14-.48,5.24-.02,10.47,0,15.71-.03,.4,0,1.05,.35,1.14-.48,6.16,0,12.34-.36,18.46,.09,6.93,.51,13.85,.31,20.77,.39,6.99,.08,13.98,.02,20.97,.02,3.56,.91,7.18,.4,10.78,.48,3.66,.08,7.32,.02,10.98,.02Z"/><path class="b" d="M586.7,311.31c-23.44,0-46.88,0-70.32-.03-.69,0-1.64,.62-2.14-.47,1.33,0,2.69,.17,3.99-.03,5.58-.86,11.18-.37,16.77-.45,5.57-.08,11.15-.02,16.72-.02s11.35,.41,16.96-.11c6.02-.55,12.02-.15,18.02-.39v1.5Z"/><path class="n" d="M99.88,357.11l-.18,.18c-.06-.11-.13-.22-.16-.34,0-.04,.1-.11,.16-.16l.18,.32Z"/><path class="c" d="M572.85,256.35c-2.48,0-4.31,.1-6.14-.02-2.63-.17-5.15,.76-7.79,.56-2.65-.19-5.33-.04-7.99-.04s-5.39-.35-7.98,.08c-4.69,.77-9.37,.28-14.04,.4-4.83,.12-9.66,.03-14.49,.03s-9.53,.39-14.23-.1c-5.36-.56-10.73,.12-16.03-.49-4.12-.47-8.24,.08-12.28-.5-3.62-.52-7.25,.06-10.78-.49-3.45-.53-6.92,.04-10.28-.51-3.29-.53-6.59,.05-9.79-.49-3.45-.58-6.92,.05-10.28-.51-3.12-.53-6.24-.01-9.29-.46-3.27-.49-6.56-.12-9.78-.55-2.03-.27-4.07-.08-6.04-.45-2.52-.48-5.08-.1-7.53-.55-1.96-.36-3.92-.05-5.79-.46-1.94-.43-3.92-.12-5.78-.53-1.62-.35-3.26-.09-4.79-.47-1.86-.46-3.75-.13-5.54-.51-1.7-.36-3.43-.12-5.04-.5-1.79-.42-3.54-.3-5.3-.45-1.1-.09-2.13-.59-3.29-.51-1.1,.08-2.28,.29-3.29-.46-.05-.04-.16,0-.25,0-2.85-.17-5.69-.3-8.53-.51-1.19-.09-2.36-.33-3.54-.48-1.18-.15-2.45,.36-3.55-.49-.1-.08-.33-.03-.49,0-2.79,.34-5.5-.67-8.29-.54-1.09,.05-2.19-.34-3.29-.45-.67-.07-.55-.53-.5-.88,.04-.23,.31-.59,.5-.6,1.25-.05,2.5-.1,3.74,0,1.18,.09,2.45-.46,3.56,.45,.2,.16,.65,.03,.98,.02,9.76-.36,19.5,.75,29.27,.54,3.09-.07,6.16,.62,9.28,.49,3.16-.13,6.38-.39,9.48,.05,5.19,.75,10.39-.08,15.53,.48,6.02,.66,12.03,.26,18.03,.43,2.47,.85,5.02,.43,7.54,.49,2.5,.06,5,.08,7.49,0,2.04-.07,3.97,.75,6.04,.56,1.98-.18,3.99-.04,5.99-.04s4.21-.28,6.24,.05c5.51,.9,11.06-.08,16.53,.52,5.69,.63,11.4-.11,17.03,.52,5.45,.61,10.89-.08,16.28,.48,4.02,.42,8.03,.37,12.04,.38,.53,0,.93,.87,1.64,.09,.31-.33,1.28-.1,1.94-.05,2.01,.15,4.02,.39,6.04,.47,2.08,.08,4.16,.02,6.24,.02s4.21-.29,6.23,.06c5.34,.9,10.73-.09,16.03,.52,5.86,.67,11.73-.13,17.52,.53,5.37,.61,10.73-.12,16.03,.47,5.85,.65,11.73-.09,17.52,.55,4.62,.51,9.2,.14,13.79,.38,1,.05,2-.06,3,.03,.94,.08,1.86,.31,2.79,.48,.31,.06,.61,.12,.92,.19-.33,.1-.67,.19-.99,.32-1.88,.74-3.85,.4-5.79,.51-1.35,.08-2.69,.38-4.04,.46-1.41,.08-2.91-.28-4.23,.08-3.1,.83-6.23,.04-9.3,.48-6.42,.92-12.86,.22-19.28,.46-3.39,.95-6.86,.28-9.64,.5Z"/><path class="e" d="M492.75,311.31c-.13,.17-.25,.46-.4,.48-.49,.06-1,.02-1.5,.02-15.06,0-30.13,0-45.19-.04-.6,0-1.5,.61-1.89-.46h48.97Z"/><path class="g" d="M402.29,379.77l-.5,.5,.5-.5Z"/><path class="f" d="M473.93,720.57c-1.17,0-2.33,.03-3.5,0-5.51-.15-11.01-.73-16.54-.53-1.16,.04-2.32-.46-3.54-.52-1.13-.05-2.11-.98-3.34-.94-2.59-1.83-5.38-3.33-7.29-6.08-2.29-3.31-3.22-6.88-2.91-10.78,.13-1.69,.69-3.36,1.12-5.02,.57-2.21,1.25-4.38,1.36-6.69,.05-1.02,.38-2.02,.46-3.04,.08-1.08-.27-2.27,.08-3.22,.63-1.7,.41-3.38,.42-5.06,.04-5.83,0-11.66,.04-17.49,0-.9-.2-1.12-1.1-1.1-2.5,.07-5.02-.17-7.49,.07-3.13,.3-6.25,.83-9.32,1.61-1.5,.38-2.96,.91-4.44,1.34-1.41,.41-2.7,1.16-4.03,1.74-2.19,.96-4.1,2.55-6.2,3.74-1.66,.94-2.94,2.28-4.25,3.6-.35,.35-.3,.65,.2,.93,2.86,1.58,5.79,3.04,8.44,4.98,1.92,1.41,3.93,2.68,5.76,4.25,1.42,1.22,2.89,2.4,4.15,3.77,2.76,2.99,5.18,6.19,7.36,9.67,2.09,3.34,3.4,6.94,4.76,10.54,.44,1.18,.87,2.57,.66,3.99-.1,.68-.3,1.5,.46,2.05,.08,.06,.04,.32,0,.48-.45,2.54-.35,5.22-1.61,7.58-1.46,2.73-3.95,4.29-6.62,5.63-2.03-.31-4.05,1.49-6.08,.02-1.7,.09-3.24-.55-4.84-.98-1.5-.41-2.89-1.06-4.29-1.71-3.78-1.74-7.51-3.6-11.33-5.22-2.53-1.07-5.26-1.8-7.92-2.59-2.74-.81-5.5-1.6-8.21-2.51-2.96-1-5.67-2.51-8.19-4.35-.91-.66-1.75-1.41-2.63-2.11-.81-.65-1.81-1.16-2.41-1.97-2.01-2.72-4.52-4.98-6.49-7.77-2.1-2.96-4.21-5.92-6.28-8.92-1.25-1.8-2.32-3.72-3.46-5.58-1.55-2.51-3.16-5.01-4.55-7.6-1.6-2.98-3.49-5.83-4.58-9.09-.79-2.36-1.73-4.66-1.99-7.17-.08-.77-.33-1.53-.48-2.29-.17-.85-.34-1.69-.5-2.54-.14-.77,.36-1.67-.49-2.31-.08-.06-.03-.32-.01-.48,.37-3.29-.69-6.5-.54-9.79,.06-1.42-.36-2.85-.44-4.29-.08-1.49,.33-3.1-.1-4.47-.61-1.96-.18-3.89-.43-5.81-.91-6.91-.34-13.85-.46-20.78-.02-1.2-.35-2.45,.26-3.63,.56-1.08-.2-2.44,.71-3.45-.05-2.41,.89-4.62,1.53-6.86,1.77-6.17,4.35-12.05,7.51-17.62,2.24-3.95,4.81-7.71,7.5-11.42,4.51-6.23,10-11.51,15.5-16.76,3.72-3.56,8.01-6.51,12.37-9.29,2.42-1.54,4.88-3.01,7.49-4.22,1.33-.62,2.46-1.76,3.82-2.22,3.87-1.32,7.42-3.37,11.32-4.66,2.92-.97,5.79-2.11,8.75-2.98,1.63-.48,3.27-.97,4.91-1.41,1.8-.48,3.66-.72,5.42-1.39,.58-.22,1.31-.04,1.95-.13,.61-.09,1.19-.4,1.8-.47,2.78-.32,5.53-.82,8.32-1.12,1.69-.19,3.42-.08,5.04-.44,3.43-.76,6.87-.35,10.3-.43,3.41-.08,6.83,.03,10.24-.04,1.27-.02,2.52-.38,3.79-.46,1.33-.08,2.66,0,4-.02,2.12-.05,4.14,.73,6.29,.54,2.07-.18,4.23-.37,6.22,.05,2.05,.44,4.05,.26,6.06,.42,1.02,.08,2.02,.39,3.04,.47,1.07,.08,2.29-.3,3.2,.09,1.3,.56,2.56,.28,3.82,.43,1.02,.12,2.03,.34,3.04,.49,1.02,.15,2.01-.02,3.08,.41,1.11,.44,2.5,.33,3.76,.52,4.67,.68,9.2,1.86,13.76,2.99,2.05,.5,4,1.25,6,1.85,1.91,.57,3.78,1.31,5.65,2.02,3.98,1.49,7.84,3.27,11.54,5.3,3.15,1.72,6.21,3.65,9.09,5.86,1.62,1.25,3.15,2.65,5,3.57,.14,.07,.24,.23,.36,.35,2.7,2.53,5.58,4.9,8.05,7.64,3.26,3.62,6.47,7.32,9.03,11.48,2.39,3.89,4.68,7.85,6.55,12.02,.6,1.33,1.12,2.7,1.59,4.09,.44,1.32,.54,2.81,1.21,3.99,.77,1.33,.5,2.95,1.44,4.16-.29,2.21,1.17,4.13,1.03,6.33-.05,.83,.35,1.69,.45,2.54,.1,.79-.14,1.62,.5,2.3,.08,.09,.01,.32,.01,.49-.06,4.02,.8,8,.52,12.04-.14,2.07,.02,4.16-.04,6.24-.08,2.85-.78,5.67-.49,8.54-.68,1.28-.21,2.75-.57,4.02-.37,1.29-.26,2.55-.46,3.81-.38,2.44-.78,4.87-1.07,7.32-.13,1.08-.17,2.24-.46,3.29-.28,1.02-.26,2.06-.48,3.05-.91,4.09-1.7,8.21-3.14,12.18-1.58,4.37-3.71,8.47-5.86,12.56-2.21,4.21-4.84,8.19-7.49,12.14-1.64,2.45-3.68,4.62-5.39,7.03-1.95,2.76-4.51,5.02-6.39,7.84-.05,.07-.12,.12-.17,.18-2.06,2.23-4.14,4.44-6.18,6.69-.92,1.02-1.69,2.18-2.67,3.13-2.47,2.4-5.03,4.73-7.55,7.08-1.81,.53-2.27,2.4-3.48,3.53-1.24,1.16-2.33,2.48-3.46,3.76-2.3,2.63-5.23,4.59-8.66,5.52-2.26,.61-4.51,1.24-6.85,1.65-2.72,.48-5.42,.53-8.05,.27-2.42-.24-4.93-.48-7.26-1.71-2.83-1.49-4.77-3.66-6.35-6.33-1.73-2.93-2.51-6.04-2.54-9.46-.03-4.12,.78-8.06,2.08-11.9,.99-2.94,2.48-5.7,4.42-8.16,1.65-2.09,3.35-4.14,5.13-6.12,1.56-1.73,3.25-3.34,4.94-4.96,2.85-2.73,5.61-5.59,8.66-8.08,2.24-1.83,4.17-3.95,6.29-5.88,.71-.64,1.52-1.17,2.25-1.79,.15-.13,.27-.44,.22-.63-.03-.15-.32-.3-.52-.34-2.07-.41-4.11-1.02-6.16-1.35-2.03-.33-4.05-.81-6.02-1.26-3.05-.69-6.18-.97-9.21-1.82-1.7-.47-3.69-.35-5.46-.01-1.9,.36-3.5,1.62-4.55,3.28-2.58,4.06-4.59,8.44-5.93,13.02-.94,3.21-1.55,6.65-1.04,10.05,.4,2.68,.93,5.37,2.02,7.89,.75,1.72,1.54,3.43,1.46,5.41-.03,.76,.5,1.54,.44,2.29-.47,5.43-1.7,10.54-5.79,14.6-1.92,1.9-4,3.33-6.59,4.04-1.37,.37-2.69,.88-4.16,.84-2.25-.06-4.5-.02-6.75-.02Zm-40.05-77.45c1.08,0,2.17,.09,3.25-.02,2.07-.21,3.91,.57,5.69,1.36,2.77,1.24,5.37,2.78,6.46,5.91,2.06,1.98,2.12,4.8,2.91,7.28,.39,1.23,.27,2.67,.53,4.02,.26,1.4,.29,2.86,.47,4.29,.33,2.65,.22,5.35,.49,8.04,.25,2.55,.27,5.17-.3,7.8-.49,2.26-.21,4.67-.5,7.03-.26,2.15-.98,4.31-.6,6.53,.03,.16,.05,.36-.02,.49-1.06,1.78-.25,3.71-.44,5.56-.07,.68,.43,1.25,1.22,1.17,3.21-.35,6.33,.65,9.54,.54,3.66-.12,7.33-.03,10.99-.03,.5,0,1.01-.06,1.5,.02,.53,.09,1.03,.46,1.54,.45,.6-.01,1.19-.3,1.79-.46,1.3-.35,2.56-.83,3.47-1.87,2.03-2.3,2.33-5.14,1.74-7.91-.33-1.55-.95-3.1-1.32-4.68-.37-1.6-1.27-3.09-1.06-4.81-.92-.81-.07-1.99-.52-2.78-.54-.95-.43-1.87-.44-2.82,0-2.11,.13-4.19,.4-6.3,.28-2.21,.82-4.37,1.19-6.55,.24-1.38,.94-2.76,1.42-4.14,.48-1.38,1.09-2.71,1.68-4.05,.58-1.34,1.11-2.72,1.82-3.99,1.52-2.73,3.12-5.41,5.59-7.43,2.69-2.19,5.79-3.41,9.24-3.6,.92-.05,1.89-.29,2.85,.36,.84,.57,2.01-.22,3.04,.51,.79,.56,1.96-.13,3.04,.5,.86,.5,2.15,.33,3.25,.5,2.73,.43,5.39,1.13,8.11,1.62,.93,.17,2.05,.2,2.74,.58,.96,.54,2.18-.09,2.89,.89,2.33-.04,4.42,1.02,6.6,1.59,2.12,.56,4.24,1.34,6.16,2.62,1.6,1.07,2.75,2.56,4.17,3.77,.81,.69,1.35,1.54,1.78,2.51,.89,1.99,2.19,3.84,1.99,6.17,1.36,2.13,.21,4.25-.26,6.24-.82,3.46-2.87,6.4-5.62,8.61-1.67,1.34-3.12,2.88-4.69,4.3s-3.06,2.97-4.77,4.2c-1.34,.96-2.34,2.3-3.69,3.16-1.2,.77-2.07,1.82-3.11,2.71-1.1,.95-2.27,1.83-3.31,2.84-1.46,1.42-2.82,2.92-4.12,4.51-2.63,3.22-5.01,7.32-5.88,11.07-.04,.18,.29,.63,.46,.63,1.45,.03,2.87-.16,4.3-.37,1.66-.24,3.26-.49,4.82-1.09,2.28-.88,4.5-1.81,5.75-4.12,.44-.81,.76-1.93,1.46-2.31,.92-.49,1.37-1.45,2.22-1.85,1.49-.68,2.36-2,3.47-3.05,.63-.59,1.03-1.42,1.62-2.06,3.13-3.39,6.54-6.5,9.6-9.99,3.23-3.68,6.7-7.15,9.86-10.92,2.47-2.95,4.73-6.03,7.08-9.06,2.75-3.56,5.17-7.3,7.16-11.3,1.89-3.78,3.83-7.54,4.9-11.72,.62-2.41,1.05-4.87,1.67-7.28,.59-2.29,.56-4.72,1.02-7.07,.29-1.48,.09-3.01,.48-4.55,.36-1.44,.03-3.02,.53-4.54,.42-1.27-.12-2.65,.45-4.06,.51-1.26,.09-2.81,.51-4.28,.38-1.31,.01-2.81,.1-4.22,.08-1.35,.47-2.7,.45-4.04-.05-2.26,.25-4.52-.39-6.81-.49-1.75,.25-3.73-.58-5.52,.16-3.07-1.26-5.87-1.5-8.87-1.81-4.5-3.22-9.17-5.97-13.27-2.46-3.66-4.92-7.28-8.1-10.39-2.09-2.05-4.34-3.88-6.66-5.65-2.94-2.24-6.02-4.25-9.28-5.96-2.86-1.5-5.74-2.98-8.78-4.14-2.52-.96-5-2.03-7.56-2.84-3.03-.95-6.1-1.82-9.17-2.64-2.64-.71-5.37-.95-7.96-1.84-1-.34-2.18-.16-3.29-.5-1.03-.31-2.18-.28-3.29-.48-2.75-.48-5.55-.64-8.32-1.02-2.23-.31-4.52-.16-6.79-.48-2.45-.35-4.99-.08-7.48-.08s-4.84-.14-7.24,.04c-2.48,.18-4.83-.75-7.29-.54-2.68,.23-5.41-.49-8.04,.5-4.18,.1-8.37-.27-12.54,.47-1.57,.28-3.19,.17-4.8,.41-2.35,.36-4.72,.79-7.07,1.03-2.31,.24-4.59,.71-6.8,1.2-2.84,.64-5.69,1.44-8.5,2.32-6.19,1.95-12.25,4.2-18.07,7.06-3.41,1.67-6.73,3.5-9.96,5.5-1.47,.91-2.79,2.08-4.28,2.96-3.87,2.3-7.38,5.07-10.55,8.24-2.97,2.97-6.22,5.67-8.7,9.12-1.21,1.69-2.65,3.22-3.86,4.91-2.46,3.43-4.71,7-6.7,10.71-2.7,5.04-5.32,10.13-6.39,15.84-1.53,3.32-1.72,6.93-1.83,10.45-.13,4.08-.4,8.18,.34,12.3,.53,2.94-.13,6.01,.51,9.04,.43,2.03,.02,4.17,.49,6.29,.43,1.94,.09,4,.5,6.04,.43,2.12-.22,4.39,.58,6.52-.39,1.73,.47,3.34,.55,5.04,.09,1.76,3.43,9.62,4.58,11.33,2.58,3.82,4.82,7.85,7.37,11.69,2.62,3.96,5.24,7.93,8.88,11.06,2.4,2.06,5.19,3.57,8.2,4.29,3.86,.93,7.75,1.78,11.46,3.13,3.1,1.12,6.17,2.54,8.94,4.31,3.05,1.94,6.13,3.73,9.65,4.46,1.91,.4,3.98,.58,5.88-.59,1.67-1.03,1.96-1.98,.83-3.62-.49-.71-.89-1.47-1.39-2.17-2.14-3.01-4.33-5.91-7.37-8.19-3.22-2.42-6.68-4.38-10.08-6.48-1.6-.99-3.15-2.07-4.68-3.18-1.1-.8-2.02-1.9-3.2-2.54-1.96-1.06-2.78-3.04-4.11-4.59-.84-.99-1.61-2.18-1.98-3.41-.58-1.96-1.14-3.93-1.1-6.07,.06-3.59,1.48-6.6,3.63-9.25,3.34-4.1,7.87-6.69,12.42-9.19,2.02-1.11,4.26-1.8,6.35-2.75,1.65-.74,3.36-1.29,5.04-1.66,1.75-.39,3.49-.94,5.3-1.2,1.18-.17,2.54,0,3.5-.51,1.1-.58,2.08-.21,3.1-.39,1.01-.18,2.02-.41,3.04-.48,1.24-.08,2.5-.02,3.75-.02Z"/></svg>